<mxfile host="app.diagrams.net" modified="2023-10-01T13:09:56.720Z" agent="Mozilla/5.0 (Windows NT 10.0; Win64; x64) AppleWebKit/537.36 (KHTML, like Gecko) Chrome/117.0.0.0 Safari/537.36 Edg/117.0.2045.47" etag="EJwwyMpC89HVjSANzTwj" version="22.0.0" type="google" pages="3">
  <diagram id="R2lEEEUBdFMjLlhIrx00" name="Chen&#39;s">
    <mxGraphModel grid="1" page="1" gridSize="10" guides="1" tooltips="1" connect="1" arrows="1" fold="1" pageScale="1" pageWidth="850" pageHeight="1100" math="0" shadow="0" extFonts="Permanent Marker^https://fonts.googleapis.com/css?family=Permanent+Marker">
      <root>
        <mxCell id="0" />
        <mxCell id="1" parent="0" />
        <mxCell id="qHEk2VDLuR6snMic9dRO-1" value="" style="rounded=0;whiteSpace=wrap;html=1;" vertex="1" parent="1">
          <mxGeometry x="40" y="40" width="80" height="80" as="geometry" />
        </mxCell>
        <mxCell id="qHEk2VDLuR6snMic9dRO-2" value="A" style="text;html=1;strokeColor=none;fillColor=none;align=center;verticalAlign=middle;whiteSpace=wrap;rounded=0;" vertex="1" parent="1">
          <mxGeometry x="50" y="65" width="60" height="30" as="geometry" />
        </mxCell>
        <mxCell id="qHEk2VDLuR6snMic9dRO-3" value="" style="rounded=0;whiteSpace=wrap;html=1;" vertex="1" parent="1">
          <mxGeometry x="280" y="40" width="80" height="80" as="geometry" />
        </mxCell>
        <mxCell id="qHEk2VDLuR6snMic9dRO-4" value="B" style="text;html=1;strokeColor=none;fillColor=none;align=center;verticalAlign=middle;whiteSpace=wrap;rounded=0;" vertex="1" parent="1">
          <mxGeometry x="290" y="65" width="60" height="30" as="geometry" />
        </mxCell>
        <mxCell id="qHEk2VDLuR6snMic9dRO-8" style="edgeStyle=orthogonalEdgeStyle;rounded=0;orthogonalLoop=1;jettySize=auto;html=1;exitX=1;exitY=0.5;exitDx=0;exitDy=0;entryX=0;entryY=0.5;entryDx=0;entryDy=0;endArrow=none;endFill=0;" edge="1" parent="1" source="qHEk2VDLuR6snMic9dRO-5" target="qHEk2VDLuR6snMic9dRO-3">
          <mxGeometry relative="1" as="geometry" />
        </mxCell>
        <mxCell id="qHEk2VDLuR6snMic9dRO-5" value="" style="rhombus;whiteSpace=wrap;html=1;" vertex="1" parent="1">
          <mxGeometry x="170" y="50" width="60" height="60" as="geometry" />
        </mxCell>
        <mxCell id="qHEk2VDLuR6snMic9dRO-7" value="" style="endArrow=none;html=1;rounded=0;entryX=0;entryY=0.5;entryDx=0;entryDy=0;" edge="1" parent="1" target="qHEk2VDLuR6snMic9dRO-5">
          <mxGeometry width="50" height="50" relative="1" as="geometry">
            <mxPoint x="120" y="79.5" as="sourcePoint" />
            <mxPoint x="160" y="80" as="targetPoint" />
          </mxGeometry>
        </mxCell>
        <mxCell id="qHEk2VDLuR6snMic9dRO-9" value="" style="rounded=0;whiteSpace=wrap;html=1;" vertex="1" parent="1">
          <mxGeometry x="40" y="200" width="80" height="80" as="geometry" />
        </mxCell>
        <mxCell id="qHEk2VDLuR6snMic9dRO-10" value="A" style="text;html=1;strokeColor=none;fillColor=none;align=center;verticalAlign=middle;whiteSpace=wrap;rounded=0;" vertex="1" parent="1">
          <mxGeometry x="50" y="225" width="60" height="30" as="geometry" />
        </mxCell>
        <mxCell id="qHEk2VDLuR6snMic9dRO-11" value="" style="rounded=0;whiteSpace=wrap;html=1;" vertex="1" parent="1">
          <mxGeometry x="280" y="200" width="80" height="80" as="geometry" />
        </mxCell>
        <mxCell id="qHEk2VDLuR6snMic9dRO-12" value="B" style="text;html=1;strokeColor=none;fillColor=none;align=center;verticalAlign=middle;whiteSpace=wrap;rounded=0;" vertex="1" parent="1">
          <mxGeometry x="290" y="225" width="60" height="30" as="geometry" />
        </mxCell>
        <mxCell id="qHEk2VDLuR6snMic9dRO-13" style="edgeStyle=orthogonalEdgeStyle;rounded=0;orthogonalLoop=1;jettySize=auto;html=1;exitX=1;exitY=0.5;exitDx=0;exitDy=0;entryX=0;entryY=0.5;entryDx=0;entryDy=0;endArrow=none;endFill=0;" edge="1" parent="1" source="qHEk2VDLuR6snMic9dRO-14" target="qHEk2VDLuR6snMic9dRO-11">
          <mxGeometry relative="1" as="geometry" />
        </mxCell>
        <mxCell id="qHEk2VDLuR6snMic9dRO-14" value="" style="rhombus;whiteSpace=wrap;html=1;" vertex="1" parent="1">
          <mxGeometry x="170" y="210" width="60" height="60" as="geometry" />
        </mxCell>
        <mxCell id="qHEk2VDLuR6snMic9dRO-15" value="" style="endArrow=none;html=1;rounded=0;entryX=0;entryY=0.5;entryDx=0;entryDy=0;" edge="1" parent="1" target="qHEk2VDLuR6snMic9dRO-14">
          <mxGeometry width="50" height="50" relative="1" as="geometry">
            <mxPoint x="120" y="239.5" as="sourcePoint" />
            <mxPoint x="160" y="240" as="targetPoint" />
          </mxGeometry>
        </mxCell>
        <mxCell id="qHEk2VDLuR6snMic9dRO-16" value="" style="rounded=0;whiteSpace=wrap;html=1;" vertex="1" parent="1">
          <mxGeometry x="40" y="360" width="80" height="80" as="geometry" />
        </mxCell>
        <mxCell id="qHEk2VDLuR6snMic9dRO-17" value="A" style="text;html=1;strokeColor=none;fillColor=none;align=center;verticalAlign=middle;whiteSpace=wrap;rounded=0;" vertex="1" parent="1">
          <mxGeometry x="50" y="385" width="60" height="30" as="geometry" />
        </mxCell>
        <mxCell id="qHEk2VDLuR6snMic9dRO-18" value="" style="rounded=0;whiteSpace=wrap;html=1;" vertex="1" parent="1">
          <mxGeometry x="280" y="360" width="80" height="80" as="geometry" />
        </mxCell>
        <mxCell id="qHEk2VDLuR6snMic9dRO-19" value="B" style="text;html=1;strokeColor=none;fillColor=none;align=center;verticalAlign=middle;whiteSpace=wrap;rounded=0;" vertex="1" parent="1">
          <mxGeometry x="290" y="385" width="60" height="30" as="geometry" />
        </mxCell>
        <mxCell id="qHEk2VDLuR6snMic9dRO-20" style="edgeStyle=orthogonalEdgeStyle;rounded=0;orthogonalLoop=1;jettySize=auto;html=1;exitX=1;exitY=0.5;exitDx=0;exitDy=0;entryX=0;entryY=0.5;entryDx=0;entryDy=0;endArrow=none;endFill=0;" edge="1" parent="1" source="qHEk2VDLuR6snMic9dRO-21" target="qHEk2VDLuR6snMic9dRO-18">
          <mxGeometry relative="1" as="geometry" />
        </mxCell>
        <mxCell id="qHEk2VDLuR6snMic9dRO-21" value="" style="rhombus;whiteSpace=wrap;html=1;" vertex="1" parent="1">
          <mxGeometry x="170" y="370" width="60" height="60" as="geometry" />
        </mxCell>
        <mxCell id="qHEk2VDLuR6snMic9dRO-22" value="" style="endArrow=none;html=1;rounded=0;entryX=0;entryY=0.5;entryDx=0;entryDy=0;" edge="1" parent="1" target="qHEk2VDLuR6snMic9dRO-21">
          <mxGeometry width="50" height="50" relative="1" as="geometry">
            <mxPoint x="120" y="399.5" as="sourcePoint" />
            <mxPoint x="160" y="400" as="targetPoint" />
          </mxGeometry>
        </mxCell>
        <mxCell id="qHEk2VDLuR6snMic9dRO-23" value="" style="rounded=0;whiteSpace=wrap;html=1;" vertex="1" parent="1">
          <mxGeometry x="440" y="40" width="80" height="80" as="geometry" />
        </mxCell>
        <mxCell id="qHEk2VDLuR6snMic9dRO-24" value="A" style="text;html=1;strokeColor=none;fillColor=none;align=center;verticalAlign=middle;whiteSpace=wrap;rounded=0;" vertex="1" parent="1">
          <mxGeometry x="450" y="65" width="60" height="30" as="geometry" />
        </mxCell>
        <mxCell id="qHEk2VDLuR6snMic9dRO-25" value="" style="rounded=0;whiteSpace=wrap;html=1;" vertex="1" parent="1">
          <mxGeometry x="680" y="40" width="80" height="80" as="geometry" />
        </mxCell>
        <mxCell id="qHEk2VDLuR6snMic9dRO-26" value="B" style="text;html=1;strokeColor=none;fillColor=none;align=center;verticalAlign=middle;whiteSpace=wrap;rounded=0;" vertex="1" parent="1">
          <mxGeometry x="690" y="65" width="60" height="30" as="geometry" />
        </mxCell>
        <mxCell id="qHEk2VDLuR6snMic9dRO-27" style="edgeStyle=orthogonalEdgeStyle;rounded=0;orthogonalLoop=1;jettySize=auto;html=1;exitX=1;exitY=0.5;exitDx=0;exitDy=0;entryX=0;entryY=0.5;entryDx=0;entryDy=0;endArrow=none;endFill=0;" edge="1" parent="1" source="qHEk2VDLuR6snMic9dRO-28" target="qHEk2VDLuR6snMic9dRO-25">
          <mxGeometry relative="1" as="geometry" />
        </mxCell>
        <mxCell id="qHEk2VDLuR6snMic9dRO-28" value="" style="rhombus;whiteSpace=wrap;html=1;" vertex="1" parent="1">
          <mxGeometry x="570" y="50" width="60" height="60" as="geometry" />
        </mxCell>
        <mxCell id="qHEk2VDLuR6snMic9dRO-30" value="" style="rounded=0;whiteSpace=wrap;html=1;" vertex="1" parent="1">
          <mxGeometry x="440" y="200" width="80" height="80" as="geometry" />
        </mxCell>
        <mxCell id="qHEk2VDLuR6snMic9dRO-31" value="A" style="text;html=1;strokeColor=none;fillColor=none;align=center;verticalAlign=middle;whiteSpace=wrap;rounded=0;" vertex="1" parent="1">
          <mxGeometry x="450" y="225" width="60" height="30" as="geometry" />
        </mxCell>
        <mxCell id="qHEk2VDLuR6snMic9dRO-32" value="" style="rounded=0;whiteSpace=wrap;html=1;" vertex="1" parent="1">
          <mxGeometry x="680" y="200" width="80" height="80" as="geometry" />
        </mxCell>
        <mxCell id="qHEk2VDLuR6snMic9dRO-33" value="B" style="text;html=1;strokeColor=none;fillColor=none;align=center;verticalAlign=middle;whiteSpace=wrap;rounded=0;" vertex="1" parent="1">
          <mxGeometry x="690" y="225" width="60" height="30" as="geometry" />
        </mxCell>
        <mxCell id="qHEk2VDLuR6snMic9dRO-34" style="edgeStyle=orthogonalEdgeStyle;rounded=0;orthogonalLoop=1;jettySize=auto;html=1;exitX=1;exitY=0.5;exitDx=0;exitDy=0;entryX=0;entryY=0.5;entryDx=0;entryDy=0;endArrow=none;endFill=0;" edge="1" parent="1" source="qHEk2VDLuR6snMic9dRO-35" target="qHEk2VDLuR6snMic9dRO-32">
          <mxGeometry relative="1" as="geometry" />
        </mxCell>
        <mxCell id="qHEk2VDLuR6snMic9dRO-35" value="" style="rhombus;whiteSpace=wrap;html=1;" vertex="1" parent="1">
          <mxGeometry x="570" y="210" width="60" height="60" as="geometry" />
        </mxCell>
        <mxCell id="qHEk2VDLuR6snMic9dRO-37" value="" style="rounded=0;whiteSpace=wrap;html=1;" vertex="1" parent="1">
          <mxGeometry x="440" y="360" width="80" height="80" as="geometry" />
        </mxCell>
        <mxCell id="qHEk2VDLuR6snMic9dRO-38" value="A" style="text;html=1;strokeColor=none;fillColor=none;align=center;verticalAlign=middle;whiteSpace=wrap;rounded=0;" vertex="1" parent="1">
          <mxGeometry x="450" y="385" width="60" height="30" as="geometry" />
        </mxCell>
        <mxCell id="qHEk2VDLuR6snMic9dRO-39" value="" style="rounded=0;whiteSpace=wrap;html=1;" vertex="1" parent="1">
          <mxGeometry x="680" y="360" width="80" height="80" as="geometry" />
        </mxCell>
        <mxCell id="qHEk2VDLuR6snMic9dRO-40" value="B" style="text;html=1;strokeColor=none;fillColor=none;align=center;verticalAlign=middle;whiteSpace=wrap;rounded=0;" vertex="1" parent="1">
          <mxGeometry x="690" y="385" width="60" height="30" as="geometry" />
        </mxCell>
        <mxCell id="qHEk2VDLuR6snMic9dRO-41" style="edgeStyle=orthogonalEdgeStyle;rounded=0;orthogonalLoop=1;jettySize=auto;html=1;exitX=1;exitY=0.5;exitDx=0;exitDy=0;entryX=0;entryY=0.5;entryDx=0;entryDy=0;endArrow=none;endFill=0;" edge="1" parent="1" source="qHEk2VDLuR6snMic9dRO-42" target="qHEk2VDLuR6snMic9dRO-39">
          <mxGeometry relative="1" as="geometry" />
        </mxCell>
        <mxCell id="qHEk2VDLuR6snMic9dRO-42" value="" style="rhombus;whiteSpace=wrap;html=1;" vertex="1" parent="1">
          <mxGeometry x="570" y="370" width="60" height="60" as="geometry" />
        </mxCell>
        <mxCell id="qHEk2VDLuR6snMic9dRO-44" value="Case1" style="text;html=1;strokeColor=none;fillColor=none;align=center;verticalAlign=middle;whiteSpace=wrap;rounded=0;" vertex="1" parent="1">
          <mxGeometry x="40" y="10" width="60" height="30" as="geometry" />
        </mxCell>
        <mxCell id="qHEk2VDLuR6snMic9dRO-45" value="Case2" style="text;html=1;strokeColor=none;fillColor=none;align=center;verticalAlign=middle;whiteSpace=wrap;rounded=0;" vertex="1" parent="1">
          <mxGeometry x="40" y="170" width="60" height="30" as="geometry" />
        </mxCell>
        <mxCell id="qHEk2VDLuR6snMic9dRO-46" value="Case3" style="text;html=1;strokeColor=none;fillColor=none;align=center;verticalAlign=middle;whiteSpace=wrap;rounded=0;" vertex="1" parent="1">
          <mxGeometry x="40" y="330" width="60" height="30" as="geometry" />
        </mxCell>
        <mxCell id="qHEk2VDLuR6snMic9dRO-47" value="Case4" style="text;html=1;strokeColor=none;fillColor=none;align=center;verticalAlign=middle;whiteSpace=wrap;rounded=0;" vertex="1" parent="1">
          <mxGeometry x="440" y="10" width="60" height="30" as="geometry" />
        </mxCell>
        <mxCell id="qHEk2VDLuR6snMic9dRO-48" value="Case5" style="text;html=1;strokeColor=none;fillColor=none;align=center;verticalAlign=middle;whiteSpace=wrap;rounded=0;" vertex="1" parent="1">
          <mxGeometry x="440" y="170" width="60" height="30" as="geometry" />
        </mxCell>
        <mxCell id="qHEk2VDLuR6snMic9dRO-49" value="Case6" style="text;html=1;strokeColor=none;fillColor=none;align=center;verticalAlign=middle;whiteSpace=wrap;rounded=0;" vertex="1" parent="1">
          <mxGeometry x="440" y="330" width="60" height="30" as="geometry" />
        </mxCell>
        <mxCell id="qHEk2VDLuR6snMic9dRO-50" value="1" style="text;html=1;strokeColor=none;fillColor=none;align=center;verticalAlign=middle;whiteSpace=wrap;rounded=0;" vertex="1" parent="1">
          <mxGeometry x="170" y="50" width="10" height="10" as="geometry" />
        </mxCell>
        <mxCell id="qHEk2VDLuR6snMic9dRO-51" value="1" style="text;html=1;strokeColor=none;fillColor=none;align=center;verticalAlign=middle;whiteSpace=wrap;rounded=0;" vertex="1" parent="1">
          <mxGeometry x="220" y="50" width="10" height="10" as="geometry" />
        </mxCell>
        <mxCell id="qHEk2VDLuR6snMic9dRO-53" value="1" style="text;html=1;strokeColor=none;fillColor=none;align=center;verticalAlign=middle;whiteSpace=wrap;rounded=0;" vertex="1" parent="1">
          <mxGeometry x="170" y="210" width="10" height="10" as="geometry" />
        </mxCell>
        <mxCell id="qHEk2VDLuR6snMic9dRO-54" value="n" style="text;html=1;strokeColor=none;fillColor=none;align=center;verticalAlign=middle;whiteSpace=wrap;rounded=0;" vertex="1" parent="1">
          <mxGeometry x="220" y="210" width="10" height="10" as="geometry" />
        </mxCell>
        <mxCell id="qHEk2VDLuR6snMic9dRO-55" value="m" style="text;html=1;strokeColor=none;fillColor=none;align=center;verticalAlign=middle;whiteSpace=wrap;rounded=0;" vertex="1" parent="1">
          <mxGeometry x="170" y="370" width="10" height="10" as="geometry" />
        </mxCell>
        <mxCell id="qHEk2VDLuR6snMic9dRO-56" value="n" style="text;html=1;strokeColor=none;fillColor=none;align=center;verticalAlign=middle;whiteSpace=wrap;rounded=0;" vertex="1" parent="1">
          <mxGeometry x="220" y="370" width="10" height="10" as="geometry" />
        </mxCell>
        <mxCell id="qHEk2VDLuR6snMic9dRO-57" value="1" style="text;html=1;strokeColor=none;fillColor=none;align=center;verticalAlign=middle;whiteSpace=wrap;rounded=0;" vertex="1" parent="1">
          <mxGeometry x="570" y="50" width="10" height="10" as="geometry" />
        </mxCell>
        <mxCell id="qHEk2VDLuR6snMic9dRO-58" value="1" style="text;html=1;strokeColor=none;fillColor=none;align=center;verticalAlign=middle;whiteSpace=wrap;rounded=0;" vertex="1" parent="1">
          <mxGeometry x="620" y="50" width="10" height="10" as="geometry" />
        </mxCell>
        <mxCell id="qHEk2VDLuR6snMic9dRO-59" value="1" style="text;html=1;strokeColor=none;fillColor=none;align=center;verticalAlign=middle;whiteSpace=wrap;rounded=0;" vertex="1" parent="1">
          <mxGeometry x="570" y="215" width="10" height="10" as="geometry" />
        </mxCell>
        <mxCell id="qHEk2VDLuR6snMic9dRO-60" value="n" style="text;html=1;strokeColor=none;fillColor=none;align=center;verticalAlign=middle;whiteSpace=wrap;rounded=0;" vertex="1" parent="1">
          <mxGeometry x="620" y="215" width="10" height="10" as="geometry" />
        </mxCell>
        <mxCell id="qHEk2VDLuR6snMic9dRO-61" value="m" style="text;html=1;strokeColor=none;fillColor=none;align=center;verticalAlign=middle;whiteSpace=wrap;rounded=0;" vertex="1" parent="1">
          <mxGeometry x="570" y="370" width="10" height="10" as="geometry" />
        </mxCell>
        <mxCell id="qHEk2VDLuR6snMic9dRO-62" value="n" style="text;html=1;strokeColor=none;fillColor=none;align=center;verticalAlign=middle;whiteSpace=wrap;rounded=0;" vertex="1" parent="1">
          <mxGeometry x="620" y="370" width="10" height="10" as="geometry" />
        </mxCell>
        <mxCell id="qHEk2VDLuR6snMic9dRO-71" value="" style="shape=link;html=1;rounded=0;" edge="1" parent="1">
          <mxGeometry relative="1" as="geometry">
            <mxPoint x="520" y="79.5" as="sourcePoint" />
            <mxPoint x="570" y="80" as="targetPoint" />
          </mxGeometry>
        </mxCell>
        <mxCell id="qHEk2VDLuR6snMic9dRO-73" value="" style="shape=link;html=1;rounded=0;" edge="1" parent="1">
          <mxGeometry relative="1" as="geometry">
            <mxPoint x="520" y="240" as="sourcePoint" />
            <mxPoint x="570" y="240.5" as="targetPoint" />
          </mxGeometry>
        </mxCell>
        <mxCell id="qHEk2VDLuR6snMic9dRO-75" value="" style="shape=link;html=1;rounded=0;" edge="1" parent="1">
          <mxGeometry relative="1" as="geometry">
            <mxPoint x="520" y="399.5" as="sourcePoint" />
            <mxPoint x="570" y="400" as="targetPoint" />
          </mxGeometry>
        </mxCell>
      </root>
    </mxGraphModel>
  </diagram>
  <diagram id="qT47EpYvajoqGvHbxW2l" name="Crow&#39;s feet">
    <mxGraphModel grid="1" page="1" gridSize="10" guides="1" tooltips="1" connect="1" arrows="1" fold="1" pageScale="1" pageWidth="827" pageHeight="1169" math="0" shadow="0">
      <root>
        <mxCell id="0" />
        <mxCell id="1" parent="0" />
        <mxCell id="kFRHLv2uC1TFj8kyUyDD-1" value="" style="edgeStyle=entityRelationEdgeStyle;endArrow=ERzeroToOne;startArrow=ERzeroToOne;endFill=0;startFill=0;" edge="1" parent="1">
          <mxGeometry width="100" height="100" relative="1" as="geometry">
            <mxPoint x="140" y="89.5" as="sourcePoint" />
            <mxPoint x="300" y="89.5" as="targetPoint" />
          </mxGeometry>
        </mxCell>
        <mxCell id="kFRHLv2uC1TFj8kyUyDD-2" value="B" style="shape=table;startSize=120;container=1;collapsible=1;childLayout=tableLayout;fixedRows=1;rowLines=0;fontStyle=1;align=center;resizeLast=1;" vertex="1" parent="1">
          <mxGeometry x="300" y="40" width="100" height="100" as="geometry" />
        </mxCell>
        <mxCell id="kFRHLv2uC1TFj8kyUyDD-3" value="" style="shape=partialRectangle;collapsible=0;dropTarget=0;pointerEvents=0;fillColor=none;points=[[0,0.5],[1,0.5]];portConstraint=eastwest;top=0;left=0;right=0;bottom=1;" visible="0" vertex="1" parent="kFRHLv2uC1TFj8kyUyDD-2">
          <mxGeometry y="30" width="250" height="30" as="geometry" />
        </mxCell>
        <mxCell id="kFRHLv2uC1TFj8kyUyDD-4" value="" style="shape=partialRectangle;overflow=hidden;connectable=0;fillColor=none;top=0;left=0;bottom=0;right=0;fontStyle=1;" vertex="1" parent="kFRHLv2uC1TFj8kyUyDD-3">
          <mxGeometry width="30" height="30" as="geometry">
            <mxRectangle width="30" height="30" as="alternateBounds" />
          </mxGeometry>
        </mxCell>
        <mxCell id="kFRHLv2uC1TFj8kyUyDD-5" value="" style="shape=partialRectangle;overflow=hidden;connectable=0;fillColor=none;top=0;left=0;bottom=0;right=0;align=left;spacingLeft=6;fontStyle=5;" vertex="1" parent="kFRHLv2uC1TFj8kyUyDD-3">
          <mxGeometry x="30" width="220" height="30" as="geometry">
            <mxRectangle width="220" height="30" as="alternateBounds" />
          </mxGeometry>
        </mxCell>
        <mxCell id="kFRHLv2uC1TFj8kyUyDD-6" value="" style="shape=partialRectangle;collapsible=0;dropTarget=0;pointerEvents=0;fillColor=none;points=[[0,0.5],[1,0.5]];portConstraint=eastwest;top=0;left=0;right=0;bottom=0;" visible="0" vertex="1" parent="kFRHLv2uC1TFj8kyUyDD-2">
          <mxGeometry y="60" width="250" height="30" as="geometry" />
        </mxCell>
        <mxCell id="kFRHLv2uC1TFj8kyUyDD-7" value="" style="shape=partialRectangle;overflow=hidden;connectable=0;fillColor=none;top=0;left=0;bottom=0;right=0;" vertex="1" parent="kFRHLv2uC1TFj8kyUyDD-6">
          <mxGeometry width="30" height="30" as="geometry">
            <mxRectangle width="30" height="30" as="alternateBounds" />
          </mxGeometry>
        </mxCell>
        <mxCell id="kFRHLv2uC1TFj8kyUyDD-8" value="" style="shape=partialRectangle;overflow=hidden;connectable=0;fillColor=none;top=0;left=0;bottom=0;right=0;align=left;spacingLeft=6;" vertex="1" parent="kFRHLv2uC1TFj8kyUyDD-6">
          <mxGeometry x="30" width="220" height="30" as="geometry">
            <mxRectangle width="220" height="30" as="alternateBounds" />
          </mxGeometry>
        </mxCell>
        <mxCell id="kFRHLv2uC1TFj8kyUyDD-9" value="" style="shape=partialRectangle;collapsible=0;dropTarget=0;pointerEvents=0;fillColor=none;points=[[0,0.5],[1,0.5]];portConstraint=eastwest;top=0;left=0;right=0;bottom=0;" visible="0" vertex="1" parent="kFRHLv2uC1TFj8kyUyDD-2">
          <mxGeometry y="90" width="250" height="30" as="geometry" />
        </mxCell>
        <mxCell id="kFRHLv2uC1TFj8kyUyDD-10" value="" style="shape=partialRectangle;overflow=hidden;connectable=0;fillColor=none;top=0;left=0;bottom=0;right=0;" vertex="1" parent="kFRHLv2uC1TFj8kyUyDD-9">
          <mxGeometry width="30" height="30" as="geometry">
            <mxRectangle width="30" height="30" as="alternateBounds" />
          </mxGeometry>
        </mxCell>
        <mxCell id="kFRHLv2uC1TFj8kyUyDD-11" value="" style="shape=partialRectangle;overflow=hidden;connectable=0;fillColor=none;top=0;left=0;bottom=0;right=0;align=left;spacingLeft=6;" vertex="1" parent="kFRHLv2uC1TFj8kyUyDD-9">
          <mxGeometry x="30" width="220" height="30" as="geometry">
            <mxRectangle width="220" height="30" as="alternateBounds" />
          </mxGeometry>
        </mxCell>
        <mxCell id="kFRHLv2uC1TFj8kyUyDD-12" value="A" style="shape=table;startSize=100;container=1;collapsible=1;childLayout=tableLayout;fixedRows=1;rowLines=0;fontStyle=1;align=center;resizeLast=1;" vertex="1" parent="1">
          <mxGeometry x="40" y="40" width="100" height="100" as="geometry" />
        </mxCell>
        <mxCell id="kFRHLv2uC1TFj8kyUyDD-13" value="" style="shape=partialRectangle;collapsible=0;dropTarget=0;pointerEvents=0;fillColor=none;points=[[0,0.5],[1,0.5]];portConstraint=eastwest;top=0;left=0;right=0;bottom=1;" visible="0" vertex="1" parent="kFRHLv2uC1TFj8kyUyDD-12">
          <mxGeometry y="30" width="250" height="30" as="geometry" />
        </mxCell>
        <mxCell id="kFRHLv2uC1TFj8kyUyDD-14" value="PK" style="shape=partialRectangle;overflow=hidden;connectable=0;fillColor=none;top=0;left=0;bottom=0;right=0;fontStyle=1;" vertex="1" parent="kFRHLv2uC1TFj8kyUyDD-13">
          <mxGeometry width="30" height="30" as="geometry">
            <mxRectangle width="30" height="30" as="alternateBounds" />
          </mxGeometry>
        </mxCell>
        <mxCell id="kFRHLv2uC1TFj8kyUyDD-15" value="customer_id int NOT NULL " style="shape=partialRectangle;overflow=hidden;connectable=0;fillColor=none;top=0;left=0;bottom=0;right=0;align=left;spacingLeft=6;fontStyle=5;" vertex="1" parent="kFRHLv2uC1TFj8kyUyDD-13">
          <mxGeometry x="30" width="220" height="30" as="geometry">
            <mxRectangle width="220" height="30" as="alternateBounds" />
          </mxGeometry>
        </mxCell>
        <mxCell id="kFRHLv2uC1TFj8kyUyDD-16" value="" style="shape=partialRectangle;collapsible=0;dropTarget=0;pointerEvents=0;fillColor=none;points=[[0,0.5],[1,0.5]];portConstraint=eastwest;top=0;left=0;right=0;bottom=0;" visible="0" vertex="1" parent="kFRHLv2uC1TFj8kyUyDD-12">
          <mxGeometry y="60" width="250" height="30" as="geometry" />
        </mxCell>
        <mxCell id="kFRHLv2uC1TFj8kyUyDD-17" value="" style="shape=partialRectangle;overflow=hidden;connectable=0;fillColor=none;top=0;left=0;bottom=0;right=0;" vertex="1" parent="kFRHLv2uC1TFj8kyUyDD-16">
          <mxGeometry width="30" height="30" as="geometry">
            <mxRectangle width="30" height="30" as="alternateBounds" />
          </mxGeometry>
        </mxCell>
        <mxCell id="kFRHLv2uC1TFj8kyUyDD-18" value="customer_name char(50) NOT NULL" style="shape=partialRectangle;overflow=hidden;connectable=0;fillColor=none;top=0;left=0;bottom=0;right=0;align=left;spacingLeft=6;" vertex="1" parent="kFRHLv2uC1TFj8kyUyDD-16">
          <mxGeometry x="30" width="220" height="30" as="geometry">
            <mxRectangle width="220" height="30" as="alternateBounds" />
          </mxGeometry>
        </mxCell>
        <mxCell id="kFRHLv2uC1TFj8kyUyDD-19" value="" style="edgeStyle=entityRelationEdgeStyle;endArrow=ERzeroToMany;startArrow=ERzeroToOne;endFill=1;startFill=0;" edge="1" parent="1" source="kFRHLv2uC1TFj8kyUyDD-31" target="kFRHLv2uC1TFj8kyUyDD-24">
          <mxGeometry width="100" height="100" relative="1" as="geometry">
            <mxPoint x="340" y="890" as="sourcePoint" />
            <mxPoint x="440" y="790" as="targetPoint" />
          </mxGeometry>
        </mxCell>
        <mxCell id="kFRHLv2uC1TFj8kyUyDD-20" value="B" style="shape=table;startSize=120;container=1;collapsible=1;childLayout=tableLayout;fixedRows=1;rowLines=0;fontStyle=1;align=center;resizeLast=1;" vertex="1" parent="1">
          <mxGeometry x="300" y="210" width="100" height="100" as="geometry" />
        </mxCell>
        <mxCell id="kFRHLv2uC1TFj8kyUyDD-21" value="" style="shape=partialRectangle;collapsible=0;dropTarget=0;pointerEvents=0;fillColor=none;points=[[0,0.5],[1,0.5]];portConstraint=eastwest;top=0;left=0;right=0;bottom=1;" visible="0" vertex="1" parent="kFRHLv2uC1TFj8kyUyDD-20">
          <mxGeometry y="30" width="250" height="30" as="geometry" />
        </mxCell>
        <mxCell id="kFRHLv2uC1TFj8kyUyDD-22" value="" style="shape=partialRectangle;overflow=hidden;connectable=0;fillColor=none;top=0;left=0;bottom=0;right=0;fontStyle=1;" vertex="1" parent="kFRHLv2uC1TFj8kyUyDD-21">
          <mxGeometry width="30" height="30" as="geometry">
            <mxRectangle width="30" height="30" as="alternateBounds" />
          </mxGeometry>
        </mxCell>
        <mxCell id="kFRHLv2uC1TFj8kyUyDD-23" value="" style="shape=partialRectangle;overflow=hidden;connectable=0;fillColor=none;top=0;left=0;bottom=0;right=0;align=left;spacingLeft=6;fontStyle=5;" vertex="1" parent="kFRHLv2uC1TFj8kyUyDD-21">
          <mxGeometry x="30" width="220" height="30" as="geometry">
            <mxRectangle width="220" height="30" as="alternateBounds" />
          </mxGeometry>
        </mxCell>
        <mxCell id="kFRHLv2uC1TFj8kyUyDD-24" value="" style="shape=partialRectangle;collapsible=0;dropTarget=0;pointerEvents=0;fillColor=none;points=[[0,0.5],[1,0.5]];portConstraint=eastwest;top=0;left=0;right=0;bottom=0;" visible="0" vertex="1" parent="kFRHLv2uC1TFj8kyUyDD-20">
          <mxGeometry y="60" width="250" height="30" as="geometry" />
        </mxCell>
        <mxCell id="kFRHLv2uC1TFj8kyUyDD-25" value="" style="shape=partialRectangle;overflow=hidden;connectable=0;fillColor=none;top=0;left=0;bottom=0;right=0;" vertex="1" parent="kFRHLv2uC1TFj8kyUyDD-24">
          <mxGeometry width="30" height="30" as="geometry">
            <mxRectangle width="30" height="30" as="alternateBounds" />
          </mxGeometry>
        </mxCell>
        <mxCell id="kFRHLv2uC1TFj8kyUyDD-26" value="" style="shape=partialRectangle;overflow=hidden;connectable=0;fillColor=none;top=0;left=0;bottom=0;right=0;align=left;spacingLeft=6;" vertex="1" parent="kFRHLv2uC1TFj8kyUyDD-24">
          <mxGeometry x="30" width="220" height="30" as="geometry">
            <mxRectangle width="220" height="30" as="alternateBounds" />
          </mxGeometry>
        </mxCell>
        <mxCell id="kFRHLv2uC1TFj8kyUyDD-27" value="" style="shape=partialRectangle;collapsible=0;dropTarget=0;pointerEvents=0;fillColor=none;points=[[0,0.5],[1,0.5]];portConstraint=eastwest;top=0;left=0;right=0;bottom=0;" visible="0" vertex="1" parent="kFRHLv2uC1TFj8kyUyDD-20">
          <mxGeometry y="90" width="250" height="30" as="geometry" />
        </mxCell>
        <mxCell id="kFRHLv2uC1TFj8kyUyDD-28" value="" style="shape=partialRectangle;overflow=hidden;connectable=0;fillColor=none;top=0;left=0;bottom=0;right=0;" vertex="1" parent="kFRHLv2uC1TFj8kyUyDD-27">
          <mxGeometry width="30" height="30" as="geometry">
            <mxRectangle width="30" height="30" as="alternateBounds" />
          </mxGeometry>
        </mxCell>
        <mxCell id="kFRHLv2uC1TFj8kyUyDD-29" value="" style="shape=partialRectangle;overflow=hidden;connectable=0;fillColor=none;top=0;left=0;bottom=0;right=0;align=left;spacingLeft=6;" vertex="1" parent="kFRHLv2uC1TFj8kyUyDD-27">
          <mxGeometry x="30" width="220" height="30" as="geometry">
            <mxRectangle width="220" height="30" as="alternateBounds" />
          </mxGeometry>
        </mxCell>
        <mxCell id="kFRHLv2uC1TFj8kyUyDD-30" value="A" style="shape=table;startSize=100;container=1;collapsible=1;childLayout=tableLayout;fixedRows=1;rowLines=0;fontStyle=1;align=center;resizeLast=1;" vertex="1" parent="1">
          <mxGeometry x="40" y="210" width="100" height="100" as="geometry" />
        </mxCell>
        <mxCell id="kFRHLv2uC1TFj8kyUyDD-31" value="" style="shape=partialRectangle;collapsible=0;dropTarget=0;pointerEvents=0;fillColor=none;points=[[0,0.5],[1,0.5]];portConstraint=eastwest;top=0;left=0;right=0;bottom=1;" visible="0" vertex="1" parent="kFRHLv2uC1TFj8kyUyDD-30">
          <mxGeometry y="30" width="250" height="30" as="geometry" />
        </mxCell>
        <mxCell id="kFRHLv2uC1TFj8kyUyDD-32" value="PK" style="shape=partialRectangle;overflow=hidden;connectable=0;fillColor=none;top=0;left=0;bottom=0;right=0;fontStyle=1;" vertex="1" parent="kFRHLv2uC1TFj8kyUyDD-31">
          <mxGeometry width="30" height="30" as="geometry">
            <mxRectangle width="30" height="30" as="alternateBounds" />
          </mxGeometry>
        </mxCell>
        <mxCell id="kFRHLv2uC1TFj8kyUyDD-33" value="customer_id int NOT NULL " style="shape=partialRectangle;overflow=hidden;connectable=0;fillColor=none;top=0;left=0;bottom=0;right=0;align=left;spacingLeft=6;fontStyle=5;" vertex="1" parent="kFRHLv2uC1TFj8kyUyDD-31">
          <mxGeometry x="30" width="220" height="30" as="geometry">
            <mxRectangle width="220" height="30" as="alternateBounds" />
          </mxGeometry>
        </mxCell>
        <mxCell id="kFRHLv2uC1TFj8kyUyDD-34" value="" style="shape=partialRectangle;collapsible=0;dropTarget=0;pointerEvents=0;fillColor=none;points=[[0,0.5],[1,0.5]];portConstraint=eastwest;top=0;left=0;right=0;bottom=0;" visible="0" vertex="1" parent="kFRHLv2uC1TFj8kyUyDD-30">
          <mxGeometry y="60" width="250" height="30" as="geometry" />
        </mxCell>
        <mxCell id="kFRHLv2uC1TFj8kyUyDD-35" value="" style="shape=partialRectangle;overflow=hidden;connectable=0;fillColor=none;top=0;left=0;bottom=0;right=0;" vertex="1" parent="kFRHLv2uC1TFj8kyUyDD-34">
          <mxGeometry width="30" height="30" as="geometry">
            <mxRectangle width="30" height="30" as="alternateBounds" />
          </mxGeometry>
        </mxCell>
        <mxCell id="kFRHLv2uC1TFj8kyUyDD-36" value="customer_name char(50) NOT NULL" style="shape=partialRectangle;overflow=hidden;connectable=0;fillColor=none;top=0;left=0;bottom=0;right=0;align=left;spacingLeft=6;" vertex="1" parent="kFRHLv2uC1TFj8kyUyDD-34">
          <mxGeometry x="30" width="220" height="30" as="geometry">
            <mxRectangle width="220" height="30" as="alternateBounds" />
          </mxGeometry>
        </mxCell>
        <mxCell id="kFRHLv2uC1TFj8kyUyDD-37" value="" style="edgeStyle=entityRelationEdgeStyle;endArrow=ERmandOne;startArrow=ERzeroToOne;endFill=0;startFill=0;" edge="1" parent="1">
          <mxGeometry width="100" height="100" relative="1" as="geometry">
            <mxPoint x="520" y="89.5" as="sourcePoint" />
            <mxPoint x="680" y="89.5" as="targetPoint" />
          </mxGeometry>
        </mxCell>
        <mxCell id="kFRHLv2uC1TFj8kyUyDD-38" value="B" style="shape=table;startSize=120;container=1;collapsible=1;childLayout=tableLayout;fixedRows=1;rowLines=0;fontStyle=1;align=center;resizeLast=1;" vertex="1" parent="1">
          <mxGeometry x="680" y="40" width="100" height="100" as="geometry" />
        </mxCell>
        <mxCell id="kFRHLv2uC1TFj8kyUyDD-39" value="" style="shape=partialRectangle;collapsible=0;dropTarget=0;pointerEvents=0;fillColor=none;points=[[0,0.5],[1,0.5]];portConstraint=eastwest;top=0;left=0;right=0;bottom=1;" visible="0" vertex="1" parent="kFRHLv2uC1TFj8kyUyDD-38">
          <mxGeometry y="30" width="250" height="30" as="geometry" />
        </mxCell>
        <mxCell id="kFRHLv2uC1TFj8kyUyDD-40" value="" style="shape=partialRectangle;overflow=hidden;connectable=0;fillColor=none;top=0;left=0;bottom=0;right=0;fontStyle=1;" vertex="1" parent="kFRHLv2uC1TFj8kyUyDD-39">
          <mxGeometry width="30" height="30" as="geometry">
            <mxRectangle width="30" height="30" as="alternateBounds" />
          </mxGeometry>
        </mxCell>
        <mxCell id="kFRHLv2uC1TFj8kyUyDD-41" value="" style="shape=partialRectangle;overflow=hidden;connectable=0;fillColor=none;top=0;left=0;bottom=0;right=0;align=left;spacingLeft=6;fontStyle=5;" vertex="1" parent="kFRHLv2uC1TFj8kyUyDD-39">
          <mxGeometry x="30" width="220" height="30" as="geometry">
            <mxRectangle width="220" height="30" as="alternateBounds" />
          </mxGeometry>
        </mxCell>
        <mxCell id="kFRHLv2uC1TFj8kyUyDD-42" value="" style="shape=partialRectangle;collapsible=0;dropTarget=0;pointerEvents=0;fillColor=none;points=[[0,0.5],[1,0.5]];portConstraint=eastwest;top=0;left=0;right=0;bottom=0;" visible="0" vertex="1" parent="kFRHLv2uC1TFj8kyUyDD-38">
          <mxGeometry y="60" width="250" height="30" as="geometry" />
        </mxCell>
        <mxCell id="kFRHLv2uC1TFj8kyUyDD-43" value="" style="shape=partialRectangle;overflow=hidden;connectable=0;fillColor=none;top=0;left=0;bottom=0;right=0;" vertex="1" parent="kFRHLv2uC1TFj8kyUyDD-42">
          <mxGeometry width="30" height="30" as="geometry">
            <mxRectangle width="30" height="30" as="alternateBounds" />
          </mxGeometry>
        </mxCell>
        <mxCell id="kFRHLv2uC1TFj8kyUyDD-44" value="" style="shape=partialRectangle;overflow=hidden;connectable=0;fillColor=none;top=0;left=0;bottom=0;right=0;align=left;spacingLeft=6;" vertex="1" parent="kFRHLv2uC1TFj8kyUyDD-42">
          <mxGeometry x="30" width="220" height="30" as="geometry">
            <mxRectangle width="220" height="30" as="alternateBounds" />
          </mxGeometry>
        </mxCell>
        <mxCell id="kFRHLv2uC1TFj8kyUyDD-45" value="" style="shape=partialRectangle;collapsible=0;dropTarget=0;pointerEvents=0;fillColor=none;points=[[0,0.5],[1,0.5]];portConstraint=eastwest;top=0;left=0;right=0;bottom=0;" visible="0" vertex="1" parent="kFRHLv2uC1TFj8kyUyDD-38">
          <mxGeometry y="90" width="250" height="30" as="geometry" />
        </mxCell>
        <mxCell id="kFRHLv2uC1TFj8kyUyDD-46" value="" style="shape=partialRectangle;overflow=hidden;connectable=0;fillColor=none;top=0;left=0;bottom=0;right=0;" vertex="1" parent="kFRHLv2uC1TFj8kyUyDD-45">
          <mxGeometry width="30" height="30" as="geometry">
            <mxRectangle width="30" height="30" as="alternateBounds" />
          </mxGeometry>
        </mxCell>
        <mxCell id="kFRHLv2uC1TFj8kyUyDD-47" value="" style="shape=partialRectangle;overflow=hidden;connectable=0;fillColor=none;top=0;left=0;bottom=0;right=0;align=left;spacingLeft=6;" vertex="1" parent="kFRHLv2uC1TFj8kyUyDD-45">
          <mxGeometry x="30" width="220" height="30" as="geometry">
            <mxRectangle width="220" height="30" as="alternateBounds" />
          </mxGeometry>
        </mxCell>
        <mxCell id="kFRHLv2uC1TFj8kyUyDD-48" value="A" style="shape=table;startSize=100;container=1;collapsible=1;childLayout=tableLayout;fixedRows=1;rowLines=0;fontStyle=1;align=center;resizeLast=1;" vertex="1" parent="1">
          <mxGeometry x="420" y="40" width="100" height="100" as="geometry" />
        </mxCell>
        <mxCell id="kFRHLv2uC1TFj8kyUyDD-49" value="" style="shape=partialRectangle;collapsible=0;dropTarget=0;pointerEvents=0;fillColor=none;points=[[0,0.5],[1,0.5]];portConstraint=eastwest;top=0;left=0;right=0;bottom=1;" visible="0" vertex="1" parent="kFRHLv2uC1TFj8kyUyDD-48">
          <mxGeometry y="30" width="250" height="30" as="geometry" />
        </mxCell>
        <mxCell id="kFRHLv2uC1TFj8kyUyDD-50" value="PK" style="shape=partialRectangle;overflow=hidden;connectable=0;fillColor=none;top=0;left=0;bottom=0;right=0;fontStyle=1;" vertex="1" parent="kFRHLv2uC1TFj8kyUyDD-49">
          <mxGeometry width="30" height="30" as="geometry">
            <mxRectangle width="30" height="30" as="alternateBounds" />
          </mxGeometry>
        </mxCell>
        <mxCell id="kFRHLv2uC1TFj8kyUyDD-51" value="customer_id int NOT NULL " style="shape=partialRectangle;overflow=hidden;connectable=0;fillColor=none;top=0;left=0;bottom=0;right=0;align=left;spacingLeft=6;fontStyle=5;" vertex="1" parent="kFRHLv2uC1TFj8kyUyDD-49">
          <mxGeometry x="30" width="220" height="30" as="geometry">
            <mxRectangle width="220" height="30" as="alternateBounds" />
          </mxGeometry>
        </mxCell>
        <mxCell id="kFRHLv2uC1TFj8kyUyDD-52" value="" style="shape=partialRectangle;collapsible=0;dropTarget=0;pointerEvents=0;fillColor=none;points=[[0,0.5],[1,0.5]];portConstraint=eastwest;top=0;left=0;right=0;bottom=0;" visible="0" vertex="1" parent="kFRHLv2uC1TFj8kyUyDD-48">
          <mxGeometry y="60" width="250" height="30" as="geometry" />
        </mxCell>
        <mxCell id="kFRHLv2uC1TFj8kyUyDD-53" value="" style="shape=partialRectangle;overflow=hidden;connectable=0;fillColor=none;top=0;left=0;bottom=0;right=0;" vertex="1" parent="kFRHLv2uC1TFj8kyUyDD-52">
          <mxGeometry width="30" height="30" as="geometry">
            <mxRectangle width="30" height="30" as="alternateBounds" />
          </mxGeometry>
        </mxCell>
        <mxCell id="kFRHLv2uC1TFj8kyUyDD-54" value="customer_name char(50) NOT NULL" style="shape=partialRectangle;overflow=hidden;connectable=0;fillColor=none;top=0;left=0;bottom=0;right=0;align=left;spacingLeft=6;" vertex="1" parent="kFRHLv2uC1TFj8kyUyDD-52">
          <mxGeometry x="30" width="220" height="30" as="geometry">
            <mxRectangle width="220" height="30" as="alternateBounds" />
          </mxGeometry>
        </mxCell>
        <mxCell id="kFRHLv2uC1TFj8kyUyDD-55" value="" style="edgeStyle=entityRelationEdgeStyle;endArrow=ERoneToMany;startArrow=ERzeroToOne;endFill=0;startFill=0;" edge="1" parent="1" source="kFRHLv2uC1TFj8kyUyDD-67" target="kFRHLv2uC1TFj8kyUyDD-60">
          <mxGeometry width="100" height="100" relative="1" as="geometry">
            <mxPoint x="720" y="890" as="sourcePoint" />
            <mxPoint x="820" y="790" as="targetPoint" />
          </mxGeometry>
        </mxCell>
        <mxCell id="kFRHLv2uC1TFj8kyUyDD-56" value="B" style="shape=table;startSize=120;container=1;collapsible=1;childLayout=tableLayout;fixedRows=1;rowLines=0;fontStyle=1;align=center;resizeLast=1;" vertex="1" parent="1">
          <mxGeometry x="680" y="210" width="100" height="100" as="geometry" />
        </mxCell>
        <mxCell id="kFRHLv2uC1TFj8kyUyDD-57" value="" style="shape=partialRectangle;collapsible=0;dropTarget=0;pointerEvents=0;fillColor=none;points=[[0,0.5],[1,0.5]];portConstraint=eastwest;top=0;left=0;right=0;bottom=1;" visible="0" vertex="1" parent="kFRHLv2uC1TFj8kyUyDD-56">
          <mxGeometry y="30" width="250" height="30" as="geometry" />
        </mxCell>
        <mxCell id="kFRHLv2uC1TFj8kyUyDD-58" value="" style="shape=partialRectangle;overflow=hidden;connectable=0;fillColor=none;top=0;left=0;bottom=0;right=0;fontStyle=1;" vertex="1" parent="kFRHLv2uC1TFj8kyUyDD-57">
          <mxGeometry width="30" height="30" as="geometry">
            <mxRectangle width="30" height="30" as="alternateBounds" />
          </mxGeometry>
        </mxCell>
        <mxCell id="kFRHLv2uC1TFj8kyUyDD-59" value="" style="shape=partialRectangle;overflow=hidden;connectable=0;fillColor=none;top=0;left=0;bottom=0;right=0;align=left;spacingLeft=6;fontStyle=5;" vertex="1" parent="kFRHLv2uC1TFj8kyUyDD-57">
          <mxGeometry x="30" width="220" height="30" as="geometry">
            <mxRectangle width="220" height="30" as="alternateBounds" />
          </mxGeometry>
        </mxCell>
        <mxCell id="kFRHLv2uC1TFj8kyUyDD-60" value="" style="shape=partialRectangle;collapsible=0;dropTarget=0;pointerEvents=0;fillColor=none;points=[[0,0.5],[1,0.5]];portConstraint=eastwest;top=0;left=0;right=0;bottom=0;" visible="0" vertex="1" parent="kFRHLv2uC1TFj8kyUyDD-56">
          <mxGeometry y="60" width="250" height="30" as="geometry" />
        </mxCell>
        <mxCell id="kFRHLv2uC1TFj8kyUyDD-61" value="" style="shape=partialRectangle;overflow=hidden;connectable=0;fillColor=none;top=0;left=0;bottom=0;right=0;" vertex="1" parent="kFRHLv2uC1TFj8kyUyDD-60">
          <mxGeometry width="30" height="30" as="geometry">
            <mxRectangle width="30" height="30" as="alternateBounds" />
          </mxGeometry>
        </mxCell>
        <mxCell id="kFRHLv2uC1TFj8kyUyDD-62" value="" style="shape=partialRectangle;overflow=hidden;connectable=0;fillColor=none;top=0;left=0;bottom=0;right=0;align=left;spacingLeft=6;" vertex="1" parent="kFRHLv2uC1TFj8kyUyDD-60">
          <mxGeometry x="30" width="220" height="30" as="geometry">
            <mxRectangle width="220" height="30" as="alternateBounds" />
          </mxGeometry>
        </mxCell>
        <mxCell id="kFRHLv2uC1TFj8kyUyDD-63" value="" style="shape=partialRectangle;collapsible=0;dropTarget=0;pointerEvents=0;fillColor=none;points=[[0,0.5],[1,0.5]];portConstraint=eastwest;top=0;left=0;right=0;bottom=0;" visible="0" vertex="1" parent="kFRHLv2uC1TFj8kyUyDD-56">
          <mxGeometry y="90" width="250" height="30" as="geometry" />
        </mxCell>
        <mxCell id="kFRHLv2uC1TFj8kyUyDD-64" value="" style="shape=partialRectangle;overflow=hidden;connectable=0;fillColor=none;top=0;left=0;bottom=0;right=0;" vertex="1" parent="kFRHLv2uC1TFj8kyUyDD-63">
          <mxGeometry width="30" height="30" as="geometry">
            <mxRectangle width="30" height="30" as="alternateBounds" />
          </mxGeometry>
        </mxCell>
        <mxCell id="kFRHLv2uC1TFj8kyUyDD-65" value="" style="shape=partialRectangle;overflow=hidden;connectable=0;fillColor=none;top=0;left=0;bottom=0;right=0;align=left;spacingLeft=6;" vertex="1" parent="kFRHLv2uC1TFj8kyUyDD-63">
          <mxGeometry x="30" width="220" height="30" as="geometry">
            <mxRectangle width="220" height="30" as="alternateBounds" />
          </mxGeometry>
        </mxCell>
        <mxCell id="kFRHLv2uC1TFj8kyUyDD-66" value="A" style="shape=table;startSize=100;container=1;collapsible=1;childLayout=tableLayout;fixedRows=1;rowLines=0;fontStyle=1;align=center;resizeLast=1;" vertex="1" parent="1">
          <mxGeometry x="420" y="210" width="100" height="100" as="geometry" />
        </mxCell>
        <mxCell id="kFRHLv2uC1TFj8kyUyDD-67" value="" style="shape=partialRectangle;collapsible=0;dropTarget=0;pointerEvents=0;fillColor=none;points=[[0,0.5],[1,0.5]];portConstraint=eastwest;top=0;left=0;right=0;bottom=1;" visible="0" vertex="1" parent="kFRHLv2uC1TFj8kyUyDD-66">
          <mxGeometry y="30" width="250" height="30" as="geometry" />
        </mxCell>
        <mxCell id="kFRHLv2uC1TFj8kyUyDD-68" value="PK" style="shape=partialRectangle;overflow=hidden;connectable=0;fillColor=none;top=0;left=0;bottom=0;right=0;fontStyle=1;" vertex="1" parent="kFRHLv2uC1TFj8kyUyDD-67">
          <mxGeometry width="30" height="30" as="geometry">
            <mxRectangle width="30" height="30" as="alternateBounds" />
          </mxGeometry>
        </mxCell>
        <mxCell id="kFRHLv2uC1TFj8kyUyDD-69" value="customer_id int NOT NULL " style="shape=partialRectangle;overflow=hidden;connectable=0;fillColor=none;top=0;left=0;bottom=0;right=0;align=left;spacingLeft=6;fontStyle=5;" vertex="1" parent="kFRHLv2uC1TFj8kyUyDD-67">
          <mxGeometry x="30" width="220" height="30" as="geometry">
            <mxRectangle width="220" height="30" as="alternateBounds" />
          </mxGeometry>
        </mxCell>
        <mxCell id="kFRHLv2uC1TFj8kyUyDD-70" value="" style="shape=partialRectangle;collapsible=0;dropTarget=0;pointerEvents=0;fillColor=none;points=[[0,0.5],[1,0.5]];portConstraint=eastwest;top=0;left=0;right=0;bottom=0;" visible="0" vertex="1" parent="kFRHLv2uC1TFj8kyUyDD-66">
          <mxGeometry y="60" width="250" height="30" as="geometry" />
        </mxCell>
        <mxCell id="kFRHLv2uC1TFj8kyUyDD-71" value="" style="shape=partialRectangle;overflow=hidden;connectable=0;fillColor=none;top=0;left=0;bottom=0;right=0;" vertex="1" parent="kFRHLv2uC1TFj8kyUyDD-70">
          <mxGeometry width="30" height="30" as="geometry">
            <mxRectangle width="30" height="30" as="alternateBounds" />
          </mxGeometry>
        </mxCell>
        <mxCell id="kFRHLv2uC1TFj8kyUyDD-72" value="customer_name char(50) NOT NULL" style="shape=partialRectangle;overflow=hidden;connectable=0;fillColor=none;top=0;left=0;bottom=0;right=0;align=left;spacingLeft=6;" vertex="1" parent="kFRHLv2uC1TFj8kyUyDD-70">
          <mxGeometry x="30" width="220" height="30" as="geometry">
            <mxRectangle width="220" height="30" as="alternateBounds" />
          </mxGeometry>
        </mxCell>
        <mxCell id="kFRHLv2uC1TFj8kyUyDD-73" value="" style="edgeStyle=entityRelationEdgeStyle;endArrow=ERzeroToMany;startArrow=ERzeroToMany;endFill=1;startFill=0;" edge="1" parent="1" source="kFRHLv2uC1TFj8kyUyDD-85" target="kFRHLv2uC1TFj8kyUyDD-78">
          <mxGeometry width="100" height="100" relative="1" as="geometry">
            <mxPoint x="340" y="1060" as="sourcePoint" />
            <mxPoint x="440" y="960" as="targetPoint" />
          </mxGeometry>
        </mxCell>
        <mxCell id="kFRHLv2uC1TFj8kyUyDD-74" value="B" style="shape=table;startSize=120;container=1;collapsible=1;childLayout=tableLayout;fixedRows=1;rowLines=0;fontStyle=1;align=center;resizeLast=1;" vertex="1" parent="1">
          <mxGeometry x="300" y="380" width="100" height="100" as="geometry" />
        </mxCell>
        <mxCell id="kFRHLv2uC1TFj8kyUyDD-75" value="" style="shape=partialRectangle;collapsible=0;dropTarget=0;pointerEvents=0;fillColor=none;points=[[0,0.5],[1,0.5]];portConstraint=eastwest;top=0;left=0;right=0;bottom=1;" visible="0" vertex="1" parent="kFRHLv2uC1TFj8kyUyDD-74">
          <mxGeometry y="30" width="250" height="30" as="geometry" />
        </mxCell>
        <mxCell id="kFRHLv2uC1TFj8kyUyDD-76" value="" style="shape=partialRectangle;overflow=hidden;connectable=0;fillColor=none;top=0;left=0;bottom=0;right=0;fontStyle=1;" vertex="1" parent="kFRHLv2uC1TFj8kyUyDD-75">
          <mxGeometry width="30" height="30" as="geometry">
            <mxRectangle width="30" height="30" as="alternateBounds" />
          </mxGeometry>
        </mxCell>
        <mxCell id="kFRHLv2uC1TFj8kyUyDD-77" value="" style="shape=partialRectangle;overflow=hidden;connectable=0;fillColor=none;top=0;left=0;bottom=0;right=0;align=left;spacingLeft=6;fontStyle=5;" vertex="1" parent="kFRHLv2uC1TFj8kyUyDD-75">
          <mxGeometry x="30" width="220" height="30" as="geometry">
            <mxRectangle width="220" height="30" as="alternateBounds" />
          </mxGeometry>
        </mxCell>
        <mxCell id="kFRHLv2uC1TFj8kyUyDD-78" value="" style="shape=partialRectangle;collapsible=0;dropTarget=0;pointerEvents=0;fillColor=none;points=[[0,0.5],[1,0.5]];portConstraint=eastwest;top=0;left=0;right=0;bottom=0;" visible="0" vertex="1" parent="kFRHLv2uC1TFj8kyUyDD-74">
          <mxGeometry y="60" width="250" height="30" as="geometry" />
        </mxCell>
        <mxCell id="kFRHLv2uC1TFj8kyUyDD-79" value="" style="shape=partialRectangle;overflow=hidden;connectable=0;fillColor=none;top=0;left=0;bottom=0;right=0;" vertex="1" parent="kFRHLv2uC1TFj8kyUyDD-78">
          <mxGeometry width="30" height="30" as="geometry">
            <mxRectangle width="30" height="30" as="alternateBounds" />
          </mxGeometry>
        </mxCell>
        <mxCell id="kFRHLv2uC1TFj8kyUyDD-80" value="" style="shape=partialRectangle;overflow=hidden;connectable=0;fillColor=none;top=0;left=0;bottom=0;right=0;align=left;spacingLeft=6;" vertex="1" parent="kFRHLv2uC1TFj8kyUyDD-78">
          <mxGeometry x="30" width="220" height="30" as="geometry">
            <mxRectangle width="220" height="30" as="alternateBounds" />
          </mxGeometry>
        </mxCell>
        <mxCell id="kFRHLv2uC1TFj8kyUyDD-81" value="" style="shape=partialRectangle;collapsible=0;dropTarget=0;pointerEvents=0;fillColor=none;points=[[0,0.5],[1,0.5]];portConstraint=eastwest;top=0;left=0;right=0;bottom=0;" visible="0" vertex="1" parent="kFRHLv2uC1TFj8kyUyDD-74">
          <mxGeometry y="90" width="250" height="30" as="geometry" />
        </mxCell>
        <mxCell id="kFRHLv2uC1TFj8kyUyDD-82" value="" style="shape=partialRectangle;overflow=hidden;connectable=0;fillColor=none;top=0;left=0;bottom=0;right=0;" vertex="1" parent="kFRHLv2uC1TFj8kyUyDD-81">
          <mxGeometry width="30" height="30" as="geometry">
            <mxRectangle width="30" height="30" as="alternateBounds" />
          </mxGeometry>
        </mxCell>
        <mxCell id="kFRHLv2uC1TFj8kyUyDD-83" value="" style="shape=partialRectangle;overflow=hidden;connectable=0;fillColor=none;top=0;left=0;bottom=0;right=0;align=left;spacingLeft=6;" vertex="1" parent="kFRHLv2uC1TFj8kyUyDD-81">
          <mxGeometry x="30" width="220" height="30" as="geometry">
            <mxRectangle width="220" height="30" as="alternateBounds" />
          </mxGeometry>
        </mxCell>
        <mxCell id="kFRHLv2uC1TFj8kyUyDD-84" value="A" style="shape=table;startSize=100;container=1;collapsible=1;childLayout=tableLayout;fixedRows=1;rowLines=0;fontStyle=1;align=center;resizeLast=1;" vertex="1" parent="1">
          <mxGeometry x="40" y="380" width="100" height="100" as="geometry" />
        </mxCell>
        <mxCell id="kFRHLv2uC1TFj8kyUyDD-85" value="" style="shape=partialRectangle;collapsible=0;dropTarget=0;pointerEvents=0;fillColor=none;points=[[0,0.5],[1,0.5]];portConstraint=eastwest;top=0;left=0;right=0;bottom=1;" visible="0" vertex="1" parent="kFRHLv2uC1TFj8kyUyDD-84">
          <mxGeometry y="30" width="250" height="30" as="geometry" />
        </mxCell>
        <mxCell id="kFRHLv2uC1TFj8kyUyDD-86" value="PK" style="shape=partialRectangle;overflow=hidden;connectable=0;fillColor=none;top=0;left=0;bottom=0;right=0;fontStyle=1;" vertex="1" parent="kFRHLv2uC1TFj8kyUyDD-85">
          <mxGeometry width="30" height="30" as="geometry">
            <mxRectangle width="30" height="30" as="alternateBounds" />
          </mxGeometry>
        </mxCell>
        <mxCell id="kFRHLv2uC1TFj8kyUyDD-87" value="customer_id int NOT NULL " style="shape=partialRectangle;overflow=hidden;connectable=0;fillColor=none;top=0;left=0;bottom=0;right=0;align=left;spacingLeft=6;fontStyle=5;" vertex="1" parent="kFRHLv2uC1TFj8kyUyDD-85">
          <mxGeometry x="30" width="220" height="30" as="geometry">
            <mxRectangle width="220" height="30" as="alternateBounds" />
          </mxGeometry>
        </mxCell>
        <mxCell id="kFRHLv2uC1TFj8kyUyDD-88" value="" style="shape=partialRectangle;collapsible=0;dropTarget=0;pointerEvents=0;fillColor=none;points=[[0,0.5],[1,0.5]];portConstraint=eastwest;top=0;left=0;right=0;bottom=0;" visible="0" vertex="1" parent="kFRHLv2uC1TFj8kyUyDD-84">
          <mxGeometry y="60" width="250" height="30" as="geometry" />
        </mxCell>
        <mxCell id="kFRHLv2uC1TFj8kyUyDD-89" value="" style="shape=partialRectangle;overflow=hidden;connectable=0;fillColor=none;top=0;left=0;bottom=0;right=0;" vertex="1" parent="kFRHLv2uC1TFj8kyUyDD-88">
          <mxGeometry width="30" height="30" as="geometry">
            <mxRectangle width="30" height="30" as="alternateBounds" />
          </mxGeometry>
        </mxCell>
        <mxCell id="kFRHLv2uC1TFj8kyUyDD-90" value="customer_name char(50) NOT NULL" style="shape=partialRectangle;overflow=hidden;connectable=0;fillColor=none;top=0;left=0;bottom=0;right=0;align=left;spacingLeft=6;" vertex="1" parent="kFRHLv2uC1TFj8kyUyDD-88">
          <mxGeometry x="30" width="220" height="30" as="geometry">
            <mxRectangle width="220" height="30" as="alternateBounds" />
          </mxGeometry>
        </mxCell>
        <mxCell id="kFRHLv2uC1TFj8kyUyDD-91" value="" style="edgeStyle=entityRelationEdgeStyle;endArrow=ERoneToMany;startArrow=ERzeroToMany;endFill=0;startFill=0;" edge="1" parent="1" source="kFRHLv2uC1TFj8kyUyDD-103" target="kFRHLv2uC1TFj8kyUyDD-96">
          <mxGeometry width="100" height="100" relative="1" as="geometry">
            <mxPoint x="720" y="1060" as="sourcePoint" />
            <mxPoint x="820" y="960" as="targetPoint" />
          </mxGeometry>
        </mxCell>
        <mxCell id="kFRHLv2uC1TFj8kyUyDD-92" value="B" style="shape=table;startSize=120;container=1;collapsible=1;childLayout=tableLayout;fixedRows=1;rowLines=0;fontStyle=1;align=center;resizeLast=1;" vertex="1" parent="1">
          <mxGeometry x="680" y="380" width="100" height="100" as="geometry" />
        </mxCell>
        <mxCell id="kFRHLv2uC1TFj8kyUyDD-93" value="" style="shape=partialRectangle;collapsible=0;dropTarget=0;pointerEvents=0;fillColor=none;points=[[0,0.5],[1,0.5]];portConstraint=eastwest;top=0;left=0;right=0;bottom=1;" visible="0" vertex="1" parent="kFRHLv2uC1TFj8kyUyDD-92">
          <mxGeometry y="30" width="250" height="30" as="geometry" />
        </mxCell>
        <mxCell id="kFRHLv2uC1TFj8kyUyDD-94" value="" style="shape=partialRectangle;overflow=hidden;connectable=0;fillColor=none;top=0;left=0;bottom=0;right=0;fontStyle=1;" vertex="1" parent="kFRHLv2uC1TFj8kyUyDD-93">
          <mxGeometry width="30" height="30" as="geometry">
            <mxRectangle width="30" height="30" as="alternateBounds" />
          </mxGeometry>
        </mxCell>
        <mxCell id="kFRHLv2uC1TFj8kyUyDD-95" value="" style="shape=partialRectangle;overflow=hidden;connectable=0;fillColor=none;top=0;left=0;bottom=0;right=0;align=left;spacingLeft=6;fontStyle=5;" vertex="1" parent="kFRHLv2uC1TFj8kyUyDD-93">
          <mxGeometry x="30" width="220" height="30" as="geometry">
            <mxRectangle width="220" height="30" as="alternateBounds" />
          </mxGeometry>
        </mxCell>
        <mxCell id="kFRHLv2uC1TFj8kyUyDD-96" value="" style="shape=partialRectangle;collapsible=0;dropTarget=0;pointerEvents=0;fillColor=none;points=[[0,0.5],[1,0.5]];portConstraint=eastwest;top=0;left=0;right=0;bottom=0;" visible="0" vertex="1" parent="kFRHLv2uC1TFj8kyUyDD-92">
          <mxGeometry y="60" width="250" height="30" as="geometry" />
        </mxCell>
        <mxCell id="kFRHLv2uC1TFj8kyUyDD-97" value="" style="shape=partialRectangle;overflow=hidden;connectable=0;fillColor=none;top=0;left=0;bottom=0;right=0;" vertex="1" parent="kFRHLv2uC1TFj8kyUyDD-96">
          <mxGeometry width="30" height="30" as="geometry">
            <mxRectangle width="30" height="30" as="alternateBounds" />
          </mxGeometry>
        </mxCell>
        <mxCell id="kFRHLv2uC1TFj8kyUyDD-98" value="" style="shape=partialRectangle;overflow=hidden;connectable=0;fillColor=none;top=0;left=0;bottom=0;right=0;align=left;spacingLeft=6;" vertex="1" parent="kFRHLv2uC1TFj8kyUyDD-96">
          <mxGeometry x="30" width="220" height="30" as="geometry">
            <mxRectangle width="220" height="30" as="alternateBounds" />
          </mxGeometry>
        </mxCell>
        <mxCell id="kFRHLv2uC1TFj8kyUyDD-99" value="" style="shape=partialRectangle;collapsible=0;dropTarget=0;pointerEvents=0;fillColor=none;points=[[0,0.5],[1,0.5]];portConstraint=eastwest;top=0;left=0;right=0;bottom=0;" visible="0" vertex="1" parent="kFRHLv2uC1TFj8kyUyDD-92">
          <mxGeometry y="90" width="250" height="30" as="geometry" />
        </mxCell>
        <mxCell id="kFRHLv2uC1TFj8kyUyDD-100" value="" style="shape=partialRectangle;overflow=hidden;connectable=0;fillColor=none;top=0;left=0;bottom=0;right=0;" vertex="1" parent="kFRHLv2uC1TFj8kyUyDD-99">
          <mxGeometry width="30" height="30" as="geometry">
            <mxRectangle width="30" height="30" as="alternateBounds" />
          </mxGeometry>
        </mxCell>
        <mxCell id="kFRHLv2uC1TFj8kyUyDD-101" value="" style="shape=partialRectangle;overflow=hidden;connectable=0;fillColor=none;top=0;left=0;bottom=0;right=0;align=left;spacingLeft=6;" vertex="1" parent="kFRHLv2uC1TFj8kyUyDD-99">
          <mxGeometry x="30" width="220" height="30" as="geometry">
            <mxRectangle width="220" height="30" as="alternateBounds" />
          </mxGeometry>
        </mxCell>
        <mxCell id="kFRHLv2uC1TFj8kyUyDD-102" value="A" style="shape=table;startSize=100;container=1;collapsible=1;childLayout=tableLayout;fixedRows=1;rowLines=0;fontStyle=1;align=center;resizeLast=1;" vertex="1" parent="1">
          <mxGeometry x="420" y="380" width="100" height="100" as="geometry" />
        </mxCell>
        <mxCell id="kFRHLv2uC1TFj8kyUyDD-103" value="" style="shape=partialRectangle;collapsible=0;dropTarget=0;pointerEvents=0;fillColor=none;points=[[0,0.5],[1,0.5]];portConstraint=eastwest;top=0;left=0;right=0;bottom=1;" visible="0" vertex="1" parent="kFRHLv2uC1TFj8kyUyDD-102">
          <mxGeometry y="30" width="250" height="30" as="geometry" />
        </mxCell>
        <mxCell id="kFRHLv2uC1TFj8kyUyDD-104" value="PK" style="shape=partialRectangle;overflow=hidden;connectable=0;fillColor=none;top=0;left=0;bottom=0;right=0;fontStyle=1;" vertex="1" parent="kFRHLv2uC1TFj8kyUyDD-103">
          <mxGeometry width="30" height="30" as="geometry">
            <mxRectangle width="30" height="30" as="alternateBounds" />
          </mxGeometry>
        </mxCell>
        <mxCell id="kFRHLv2uC1TFj8kyUyDD-105" value="customer_id int NOT NULL " style="shape=partialRectangle;overflow=hidden;connectable=0;fillColor=none;top=0;left=0;bottom=0;right=0;align=left;spacingLeft=6;fontStyle=5;" vertex="1" parent="kFRHLv2uC1TFj8kyUyDD-103">
          <mxGeometry x="30" width="220" height="30" as="geometry">
            <mxRectangle width="220" height="30" as="alternateBounds" />
          </mxGeometry>
        </mxCell>
        <mxCell id="kFRHLv2uC1TFj8kyUyDD-106" value="" style="shape=partialRectangle;collapsible=0;dropTarget=0;pointerEvents=0;fillColor=none;points=[[0,0.5],[1,0.5]];portConstraint=eastwest;top=0;left=0;right=0;bottom=0;" visible="0" vertex="1" parent="kFRHLv2uC1TFj8kyUyDD-102">
          <mxGeometry y="60" width="250" height="30" as="geometry" />
        </mxCell>
        <mxCell id="kFRHLv2uC1TFj8kyUyDD-107" value="" style="shape=partialRectangle;overflow=hidden;connectable=0;fillColor=none;top=0;left=0;bottom=0;right=0;" vertex="1" parent="kFRHLv2uC1TFj8kyUyDD-106">
          <mxGeometry width="30" height="30" as="geometry">
            <mxRectangle width="30" height="30" as="alternateBounds" />
          </mxGeometry>
        </mxCell>
        <mxCell id="kFRHLv2uC1TFj8kyUyDD-108" value="customer_name char(50) NOT NULL" style="shape=partialRectangle;overflow=hidden;connectable=0;fillColor=none;top=0;left=0;bottom=0;right=0;align=left;spacingLeft=6;" vertex="1" parent="kFRHLv2uC1TFj8kyUyDD-106">
          <mxGeometry x="30" width="220" height="30" as="geometry">
            <mxRectangle width="220" height="30" as="alternateBounds" />
          </mxGeometry>
        </mxCell>
        <mxCell id="kFRHLv2uC1TFj8kyUyDD-109" value="Case1" style="text;strokeColor=none;fillColor=none;html=1;fontSize=24;fontStyle=1;verticalAlign=middle;align=center;" vertex="1" parent="1">
          <mxGeometry x="40" y="20" width="80" height="20" as="geometry" />
        </mxCell>
        <mxCell id="kFRHLv2uC1TFj8kyUyDD-110" value="Case2" style="text;strokeColor=none;fillColor=none;html=1;fontSize=24;fontStyle=1;verticalAlign=middle;align=center;" vertex="1" parent="1">
          <mxGeometry x="40" y="190" width="80" height="20" as="geometry" />
        </mxCell>
        <mxCell id="kFRHLv2uC1TFj8kyUyDD-111" value="Case3" style="text;strokeColor=none;fillColor=none;html=1;fontSize=24;fontStyle=1;verticalAlign=middle;align=center;" vertex="1" parent="1">
          <mxGeometry x="40" y="360" width="80" height="20" as="geometry" />
        </mxCell>
        <mxCell id="kFRHLv2uC1TFj8kyUyDD-112" value="Case4" style="text;strokeColor=none;fillColor=none;html=1;fontSize=24;fontStyle=1;verticalAlign=middle;align=center;" vertex="1" parent="1">
          <mxGeometry x="420" y="20" width="80" height="20" as="geometry" />
        </mxCell>
        <mxCell id="kFRHLv2uC1TFj8kyUyDD-113" value="Case5" style="text;strokeColor=none;fillColor=none;html=1;fontSize=24;fontStyle=1;verticalAlign=middle;align=center;" vertex="1" parent="1">
          <mxGeometry x="420" y="190" width="80" height="20" as="geometry" />
        </mxCell>
        <mxCell id="kFRHLv2uC1TFj8kyUyDD-114" value="Case6" style="text;strokeColor=none;fillColor=none;html=1;fontSize=24;fontStyle=1;verticalAlign=middle;align=center;" vertex="1" parent="1">
          <mxGeometry x="420" y="360" width="80" height="20" as="geometry" />
        </mxCell>
      </root>
    </mxGraphModel>
  </diagram>
  <diagram id="0NuC37KwH4OyNePpf8gY" name="set notation">
    <mxGraphModel grid="1" page="1" gridSize="10" guides="1" tooltips="1" connect="1" arrows="1" fold="1" pageScale="1" pageWidth="827" pageHeight="1169" math="0" shadow="0">
      <root>
        <mxCell id="0" />
        <mxCell id="1" parent="0" />
        <mxCell id="D7kfaGabQLl-oLV2SVKF-7" style="edgeStyle=orthogonalEdgeStyle;rounded=0;orthogonalLoop=1;jettySize=auto;html=1;exitX=1;exitY=0.5;exitDx=0;exitDy=0;exitPerimeter=0;entryX=0;entryY=0.5;entryDx=0;entryDy=0;endArrow=none;endFill=0;" edge="1" parent="1" source="D7kfaGabQLl-oLV2SVKF-8" target="D7kfaGabQLl-oLV2SVKF-12">
          <mxGeometry relative="1" as="geometry" />
        </mxCell>
        <mxCell id="D7kfaGabQLl-oLV2SVKF-8" value="" style="strokeWidth=2;html=1;shape=mxgraph.flowchart.start_2;whiteSpace=wrap;" vertex="1" parent="1">
          <mxGeometry x="60" y="70" width="20" height="20" as="geometry" />
        </mxCell>
        <mxCell id="D7kfaGabQLl-oLV2SVKF-9" style="edgeStyle=orthogonalEdgeStyle;rounded=0;orthogonalLoop=1;jettySize=auto;html=1;exitX=1;exitY=0.5;exitDx=0;exitDy=0;exitPerimeter=0;entryX=0;entryY=0.5;entryDx=0;entryDy=0;endArrow=none;endFill=0;" edge="1" parent="1" source="D7kfaGabQLl-oLV2SVKF-10" target="D7kfaGabQLl-oLV2SVKF-13">
          <mxGeometry relative="1" as="geometry" />
        </mxCell>
        <mxCell id="D7kfaGabQLl-oLV2SVKF-10" value="" style="strokeWidth=2;html=1;shape=mxgraph.flowchart.start_2;whiteSpace=wrap;" vertex="1" parent="1">
          <mxGeometry x="60" y="100" width="20" height="20" as="geometry" />
        </mxCell>
        <mxCell id="D7kfaGabQLl-oLV2SVKF-11" value="" style="strokeWidth=2;html=1;shape=mxgraph.flowchart.start_2;whiteSpace=wrap;" vertex="1" parent="1">
          <mxGeometry x="60" y="130" width="20" height="20" as="geometry" />
        </mxCell>
        <mxCell id="D7kfaGabQLl-oLV2SVKF-12" value="" style="whiteSpace=wrap;html=1;aspect=fixed;" vertex="1" parent="1">
          <mxGeometry x="140" y="70" width="20" height="20" as="geometry" />
        </mxCell>
        <mxCell id="D7kfaGabQLl-oLV2SVKF-13" value="" style="whiteSpace=wrap;html=1;aspect=fixed;" vertex="1" parent="1">
          <mxGeometry x="140" y="100" width="20" height="20" as="geometry" />
        </mxCell>
        <mxCell id="D7kfaGabQLl-oLV2SVKF-14" value="" style="whiteSpace=wrap;html=1;aspect=fixed;" vertex="1" parent="1">
          <mxGeometry x="140" y="130" width="20" height="20" as="geometry" />
        </mxCell>
        <mxCell id="D7kfaGabQLl-oLV2SVKF-15" value="a1" style="text;html=1;strokeColor=none;fillColor=none;align=center;verticalAlign=middle;whiteSpace=wrap;rounded=0;" vertex="1" parent="1">
          <mxGeometry x="40" y="70" width="20" height="20" as="geometry" />
        </mxCell>
        <mxCell id="D7kfaGabQLl-oLV2SVKF-16" value="a2" style="text;html=1;strokeColor=none;fillColor=none;align=center;verticalAlign=middle;whiteSpace=wrap;rounded=0;" vertex="1" parent="1">
          <mxGeometry x="40" y="100" width="20" height="20" as="geometry" />
        </mxCell>
        <mxCell id="D7kfaGabQLl-oLV2SVKF-17" value="a3" style="text;html=1;strokeColor=none;fillColor=none;align=center;verticalAlign=middle;whiteSpace=wrap;rounded=0;" vertex="1" parent="1">
          <mxGeometry x="40" y="130" width="20" height="20" as="geometry" />
        </mxCell>
        <mxCell id="D7kfaGabQLl-oLV2SVKF-18" value="b1" style="text;html=1;strokeColor=none;fillColor=none;align=center;verticalAlign=middle;whiteSpace=wrap;rounded=0;" vertex="1" parent="1">
          <mxGeometry x="160" y="70" width="20" height="20" as="geometry" />
        </mxCell>
        <mxCell id="D7kfaGabQLl-oLV2SVKF-19" value="b2" style="text;html=1;strokeColor=none;fillColor=none;align=center;verticalAlign=middle;whiteSpace=wrap;rounded=0;" vertex="1" parent="1">
          <mxGeometry x="160" y="100" width="20" height="20" as="geometry" />
        </mxCell>
        <mxCell id="D7kfaGabQLl-oLV2SVKF-20" value="b3" style="text;html=1;strokeColor=none;fillColor=none;align=center;verticalAlign=middle;whiteSpace=wrap;rounded=0;" vertex="1" parent="1">
          <mxGeometry x="160" y="130" width="20" height="20" as="geometry" />
        </mxCell>
        <mxCell id="D7kfaGabQLl-oLV2SVKF-21" value="B" style="text;html=1;strokeColor=none;fillColor=none;align=center;verticalAlign=middle;whiteSpace=wrap;rounded=0;" vertex="1" parent="1">
          <mxGeometry x="140" y="40" width="20" height="20" as="geometry" />
        </mxCell>
        <mxCell id="D7kfaGabQLl-oLV2SVKF-22" value="A" style="text;html=1;strokeColor=none;fillColor=none;align=center;verticalAlign=middle;whiteSpace=wrap;rounded=0;" vertex="1" parent="1">
          <mxGeometry x="60" y="40" width="20" height="20" as="geometry" />
        </mxCell>
        <mxCell id="D7kfaGabQLl-oLV2SVKF-25" value="Case1" style="text;html=1;strokeColor=none;fillColor=none;align=center;verticalAlign=middle;whiteSpace=wrap;rounded=0;" vertex="1" parent="1">
          <mxGeometry x="40" y="20" width="40" height="20" as="geometry" />
        </mxCell>
        <mxCell id="D7kfaGabQLl-oLV2SVKF-26" value="1:1" style="text;html=1;strokeColor=none;fillColor=none;align=center;verticalAlign=middle;whiteSpace=wrap;rounded=0;" vertex="1" parent="1">
          <mxGeometry x="90" y="160" width="40" height="20" as="geometry" />
        </mxCell>
        <mxCell id="SnQP7IMaJ4934iUjSsYH-1" style="edgeStyle=orthogonalEdgeStyle;rounded=0;orthogonalLoop=1;jettySize=auto;html=1;exitX=1;exitY=0.5;exitDx=0;exitDy=0;exitPerimeter=0;entryX=0;entryY=0.5;entryDx=0;entryDy=0;endArrow=none;endFill=0;" edge="1" parent="1" source="SnQP7IMaJ4934iUjSsYH-2" target="SnQP7IMaJ4934iUjSsYH-6">
          <mxGeometry relative="1" as="geometry" />
        </mxCell>
        <mxCell id="SnQP7IMaJ4934iUjSsYH-2" value="" style="strokeWidth=2;html=1;shape=mxgraph.flowchart.start_2;whiteSpace=wrap;" vertex="1" parent="1">
          <mxGeometry x="61" y="251" width="20" height="20" as="geometry" />
        </mxCell>
        <mxCell id="SnQP7IMaJ4934iUjSsYH-3" style="edgeStyle=orthogonalEdgeStyle;rounded=0;orthogonalLoop=1;jettySize=auto;html=1;exitX=1;exitY=0.5;exitDx=0;exitDy=0;exitPerimeter=0;entryX=0;entryY=0.5;entryDx=0;entryDy=0;endArrow=none;endFill=0;" edge="1" parent="1" source="SnQP7IMaJ4934iUjSsYH-4" target="SnQP7IMaJ4934iUjSsYH-7">
          <mxGeometry relative="1" as="geometry" />
        </mxCell>
        <mxCell id="SnQP7IMaJ4934iUjSsYH-4" value="" style="strokeWidth=2;html=1;shape=mxgraph.flowchart.start_2;whiteSpace=wrap;" vertex="1" parent="1">
          <mxGeometry x="61" y="281" width="20" height="20" as="geometry" />
        </mxCell>
        <mxCell id="SnQP7IMaJ4934iUjSsYH-5" value="" style="strokeWidth=2;html=1;shape=mxgraph.flowchart.start_2;whiteSpace=wrap;" vertex="1" parent="1">
          <mxGeometry x="61" y="311" width="20" height="20" as="geometry" />
        </mxCell>
        <mxCell id="SnQP7IMaJ4934iUjSsYH-6" value="" style="whiteSpace=wrap;html=1;aspect=fixed;" vertex="1" parent="1">
          <mxGeometry x="141" y="251" width="20" height="20" as="geometry" />
        </mxCell>
        <mxCell id="SnQP7IMaJ4934iUjSsYH-7" value="" style="whiteSpace=wrap;html=1;aspect=fixed;" vertex="1" parent="1">
          <mxGeometry x="141" y="281" width="20" height="20" as="geometry" />
        </mxCell>
        <mxCell id="SnQP7IMaJ4934iUjSsYH-8" value="" style="whiteSpace=wrap;html=1;aspect=fixed;" vertex="1" parent="1">
          <mxGeometry x="141" y="311" width="20" height="20" as="geometry" />
        </mxCell>
        <mxCell id="SnQP7IMaJ4934iUjSsYH-9" value="a1" style="text;html=1;strokeColor=none;fillColor=none;align=center;verticalAlign=middle;whiteSpace=wrap;rounded=0;" vertex="1" parent="1">
          <mxGeometry x="41" y="251" width="20" height="20" as="geometry" />
        </mxCell>
        <mxCell id="SnQP7IMaJ4934iUjSsYH-10" value="a2" style="text;html=1;strokeColor=none;fillColor=none;align=center;verticalAlign=middle;whiteSpace=wrap;rounded=0;" vertex="1" parent="1">
          <mxGeometry x="41" y="281" width="20" height="20" as="geometry" />
        </mxCell>
        <mxCell id="SnQP7IMaJ4934iUjSsYH-11" value="a3" style="text;html=1;strokeColor=none;fillColor=none;align=center;verticalAlign=middle;whiteSpace=wrap;rounded=0;" vertex="1" parent="1">
          <mxGeometry x="41" y="311" width="20" height="20" as="geometry" />
        </mxCell>
        <mxCell id="SnQP7IMaJ4934iUjSsYH-12" value="b1" style="text;html=1;strokeColor=none;fillColor=none;align=center;verticalAlign=middle;whiteSpace=wrap;rounded=0;" vertex="1" parent="1">
          <mxGeometry x="161" y="251" width="20" height="20" as="geometry" />
        </mxCell>
        <mxCell id="SnQP7IMaJ4934iUjSsYH-13" value="b2" style="text;html=1;strokeColor=none;fillColor=none;align=center;verticalAlign=middle;whiteSpace=wrap;rounded=0;" vertex="1" parent="1">
          <mxGeometry x="161" y="281" width="20" height="20" as="geometry" />
        </mxCell>
        <mxCell id="SnQP7IMaJ4934iUjSsYH-14" value="b3" style="text;html=1;strokeColor=none;fillColor=none;align=center;verticalAlign=middle;whiteSpace=wrap;rounded=0;" vertex="1" parent="1">
          <mxGeometry x="161" y="311" width="20" height="20" as="geometry" />
        </mxCell>
        <mxCell id="SnQP7IMaJ4934iUjSsYH-15" value="B" style="text;html=1;strokeColor=none;fillColor=none;align=center;verticalAlign=middle;whiteSpace=wrap;rounded=0;" vertex="1" parent="1">
          <mxGeometry x="141" y="221" width="20" height="20" as="geometry" />
        </mxCell>
        <mxCell id="SnQP7IMaJ4934iUjSsYH-16" value="A" style="text;html=1;strokeColor=none;fillColor=none;align=center;verticalAlign=middle;whiteSpace=wrap;rounded=0;" vertex="1" parent="1">
          <mxGeometry x="61" y="221" width="20" height="20" as="geometry" />
        </mxCell>
        <mxCell id="SnQP7IMaJ4934iUjSsYH-17" value="Case2" style="text;html=1;strokeColor=none;fillColor=none;align=center;verticalAlign=middle;whiteSpace=wrap;rounded=0;" vertex="1" parent="1">
          <mxGeometry x="41" y="201" width="40" height="20" as="geometry" />
        </mxCell>
        <mxCell id="SnQP7IMaJ4934iUjSsYH-18" value="1:n" style="text;html=1;strokeColor=none;fillColor=none;align=center;verticalAlign=middle;whiteSpace=wrap;rounded=0;" vertex="1" parent="1">
          <mxGeometry x="91" y="341" width="40" height="20" as="geometry" />
        </mxCell>
        <mxCell id="SnQP7IMaJ4934iUjSsYH-19" style="edgeStyle=orthogonalEdgeStyle;rounded=0;orthogonalLoop=1;jettySize=auto;html=1;exitX=1;exitY=0.5;exitDx=0;exitDy=0;exitPerimeter=0;entryX=0;entryY=0.5;entryDx=0;entryDy=0;endArrow=none;endFill=0;" edge="1" parent="1" source="SnQP7IMaJ4934iUjSsYH-20" target="SnQP7IMaJ4934iUjSsYH-24">
          <mxGeometry relative="1" as="geometry" />
        </mxCell>
        <mxCell id="SnQP7IMaJ4934iUjSsYH-20" value="" style="strokeWidth=2;html=1;shape=mxgraph.flowchart.start_2;whiteSpace=wrap;" vertex="1" parent="1">
          <mxGeometry x="61" y="432" width="20" height="20" as="geometry" />
        </mxCell>
        <mxCell id="SnQP7IMaJ4934iUjSsYH-21" style="edgeStyle=orthogonalEdgeStyle;rounded=0;orthogonalLoop=1;jettySize=auto;html=1;exitX=1;exitY=0.5;exitDx=0;exitDy=0;exitPerimeter=0;entryX=0;entryY=0.5;entryDx=0;entryDy=0;endArrow=none;endFill=0;" edge="1" parent="1" source="SnQP7IMaJ4934iUjSsYH-22" target="SnQP7IMaJ4934iUjSsYH-25">
          <mxGeometry relative="1" as="geometry" />
        </mxCell>
        <mxCell id="SnQP7IMaJ4934iUjSsYH-22" value="" style="strokeWidth=2;html=1;shape=mxgraph.flowchart.start_2;whiteSpace=wrap;" vertex="1" parent="1">
          <mxGeometry x="61" y="462" width="20" height="20" as="geometry" />
        </mxCell>
        <mxCell id="SnQP7IMaJ4934iUjSsYH-23" value="" style="strokeWidth=2;html=1;shape=mxgraph.flowchart.start_2;whiteSpace=wrap;" vertex="1" parent="1">
          <mxGeometry x="61" y="492" width="20" height="20" as="geometry" />
        </mxCell>
        <mxCell id="SnQP7IMaJ4934iUjSsYH-24" value="" style="whiteSpace=wrap;html=1;aspect=fixed;" vertex="1" parent="1">
          <mxGeometry x="141" y="432" width="20" height="20" as="geometry" />
        </mxCell>
        <mxCell id="SnQP7IMaJ4934iUjSsYH-25" value="" style="whiteSpace=wrap;html=1;aspect=fixed;" vertex="1" parent="1">
          <mxGeometry x="141" y="462" width="20" height="20" as="geometry" />
        </mxCell>
        <mxCell id="SnQP7IMaJ4934iUjSsYH-26" value="" style="whiteSpace=wrap;html=1;aspect=fixed;" vertex="1" parent="1">
          <mxGeometry x="141" y="492" width="20" height="20" as="geometry" />
        </mxCell>
        <mxCell id="SnQP7IMaJ4934iUjSsYH-27" value="a1" style="text;html=1;strokeColor=none;fillColor=none;align=center;verticalAlign=middle;whiteSpace=wrap;rounded=0;" vertex="1" parent="1">
          <mxGeometry x="41" y="432" width="20" height="20" as="geometry" />
        </mxCell>
        <mxCell id="SnQP7IMaJ4934iUjSsYH-28" value="a2" style="text;html=1;strokeColor=none;fillColor=none;align=center;verticalAlign=middle;whiteSpace=wrap;rounded=0;" vertex="1" parent="1">
          <mxGeometry x="41" y="462" width="20" height="20" as="geometry" />
        </mxCell>
        <mxCell id="SnQP7IMaJ4934iUjSsYH-29" value="a3" style="text;html=1;strokeColor=none;fillColor=none;align=center;verticalAlign=middle;whiteSpace=wrap;rounded=0;" vertex="1" parent="1">
          <mxGeometry x="41" y="492" width="20" height="20" as="geometry" />
        </mxCell>
        <mxCell id="SnQP7IMaJ4934iUjSsYH-30" value="b1" style="text;html=1;strokeColor=none;fillColor=none;align=center;verticalAlign=middle;whiteSpace=wrap;rounded=0;" vertex="1" parent="1">
          <mxGeometry x="161" y="432" width="20" height="20" as="geometry" />
        </mxCell>
        <mxCell id="SnQP7IMaJ4934iUjSsYH-31" value="b2" style="text;html=1;strokeColor=none;fillColor=none;align=center;verticalAlign=middle;whiteSpace=wrap;rounded=0;" vertex="1" parent="1">
          <mxGeometry x="161" y="462" width="20" height="20" as="geometry" />
        </mxCell>
        <mxCell id="SnQP7IMaJ4934iUjSsYH-32" value="b3" style="text;html=1;strokeColor=none;fillColor=none;align=center;verticalAlign=middle;whiteSpace=wrap;rounded=0;" vertex="1" parent="1">
          <mxGeometry x="161" y="492" width="20" height="20" as="geometry" />
        </mxCell>
        <mxCell id="SnQP7IMaJ4934iUjSsYH-33" value="B" style="text;html=1;strokeColor=none;fillColor=none;align=center;verticalAlign=middle;whiteSpace=wrap;rounded=0;" vertex="1" parent="1">
          <mxGeometry x="141" y="402" width="20" height="20" as="geometry" />
        </mxCell>
        <mxCell id="SnQP7IMaJ4934iUjSsYH-34" value="A" style="text;html=1;strokeColor=none;fillColor=none;align=center;verticalAlign=middle;whiteSpace=wrap;rounded=0;" vertex="1" parent="1">
          <mxGeometry x="61" y="402" width="20" height="20" as="geometry" />
        </mxCell>
        <mxCell id="SnQP7IMaJ4934iUjSsYH-35" value="Case3" style="text;html=1;strokeColor=none;fillColor=none;align=center;verticalAlign=middle;whiteSpace=wrap;rounded=0;" vertex="1" parent="1">
          <mxGeometry x="41" y="382" width="40" height="20" as="geometry" />
        </mxCell>
        <mxCell id="SnQP7IMaJ4934iUjSsYH-36" value="m:n" style="text;html=1;strokeColor=none;fillColor=none;align=center;verticalAlign=middle;whiteSpace=wrap;rounded=0;" vertex="1" parent="1">
          <mxGeometry x="91" y="522" width="40" height="20" as="geometry" />
        </mxCell>
        <mxCell id="SnQP7IMaJ4934iUjSsYH-37" style="edgeStyle=orthogonalEdgeStyle;rounded=0;orthogonalLoop=1;jettySize=auto;html=1;exitX=1;exitY=0.5;exitDx=0;exitDy=0;exitPerimeter=0;entryX=0;entryY=0.5;entryDx=0;entryDy=0;endArrow=none;endFill=0;" edge="1" parent="1" source="SnQP7IMaJ4934iUjSsYH-38" target="SnQP7IMaJ4934iUjSsYH-42">
          <mxGeometry relative="1" as="geometry" />
        </mxCell>
        <mxCell id="SnQP7IMaJ4934iUjSsYH-38" value="" style="strokeWidth=2;html=1;shape=mxgraph.flowchart.start_2;whiteSpace=wrap;" vertex="1" parent="1">
          <mxGeometry x="501" y="70" width="20" height="20" as="geometry" />
        </mxCell>
        <mxCell id="SnQP7IMaJ4934iUjSsYH-39" style="edgeStyle=orthogonalEdgeStyle;rounded=0;orthogonalLoop=1;jettySize=auto;html=1;exitX=1;exitY=0.5;exitDx=0;exitDy=0;exitPerimeter=0;entryX=0;entryY=0.5;entryDx=0;entryDy=0;endArrow=none;endFill=0;" edge="1" parent="1" source="SnQP7IMaJ4934iUjSsYH-40" target="SnQP7IMaJ4934iUjSsYH-43">
          <mxGeometry relative="1" as="geometry" />
        </mxCell>
        <mxCell id="SnQP7IMaJ4934iUjSsYH-40" value="" style="strokeWidth=2;html=1;shape=mxgraph.flowchart.start_2;whiteSpace=wrap;" vertex="1" parent="1">
          <mxGeometry x="501" y="100" width="20" height="20" as="geometry" />
        </mxCell>
        <mxCell id="SnQP7IMaJ4934iUjSsYH-42" value="" style="whiteSpace=wrap;html=1;aspect=fixed;" vertex="1" parent="1">
          <mxGeometry x="581" y="70" width="20" height="20" as="geometry" />
        </mxCell>
        <mxCell id="SnQP7IMaJ4934iUjSsYH-43" value="" style="whiteSpace=wrap;html=1;aspect=fixed;" vertex="1" parent="1">
          <mxGeometry x="581" y="100" width="20" height="20" as="geometry" />
        </mxCell>
        <mxCell id="SnQP7IMaJ4934iUjSsYH-44" value="" style="whiteSpace=wrap;html=1;aspect=fixed;" vertex="1" parent="1">
          <mxGeometry x="581" y="130" width="20" height="20" as="geometry" />
        </mxCell>
        <mxCell id="SnQP7IMaJ4934iUjSsYH-45" value="a1" style="text;html=1;strokeColor=none;fillColor=none;align=center;verticalAlign=middle;whiteSpace=wrap;rounded=0;" vertex="1" parent="1">
          <mxGeometry x="481" y="70" width="20" height="20" as="geometry" />
        </mxCell>
        <mxCell id="SnQP7IMaJ4934iUjSsYH-46" value="a2" style="text;html=1;strokeColor=none;fillColor=none;align=center;verticalAlign=middle;whiteSpace=wrap;rounded=0;" vertex="1" parent="1">
          <mxGeometry x="481" y="100" width="20" height="20" as="geometry" />
        </mxCell>
        <mxCell id="SnQP7IMaJ4934iUjSsYH-48" value="b1" style="text;html=1;strokeColor=none;fillColor=none;align=center;verticalAlign=middle;whiteSpace=wrap;rounded=0;" vertex="1" parent="1">
          <mxGeometry x="601" y="70" width="20" height="20" as="geometry" />
        </mxCell>
        <mxCell id="SnQP7IMaJ4934iUjSsYH-49" value="b2" style="text;html=1;strokeColor=none;fillColor=none;align=center;verticalAlign=middle;whiteSpace=wrap;rounded=0;" vertex="1" parent="1">
          <mxGeometry x="601" y="100" width="20" height="20" as="geometry" />
        </mxCell>
        <mxCell id="SnQP7IMaJ4934iUjSsYH-50" value="b3" style="text;html=1;strokeColor=none;fillColor=none;align=center;verticalAlign=middle;whiteSpace=wrap;rounded=0;" vertex="1" parent="1">
          <mxGeometry x="601" y="130" width="20" height="20" as="geometry" />
        </mxCell>
        <mxCell id="SnQP7IMaJ4934iUjSsYH-51" value="B" style="text;html=1;strokeColor=none;fillColor=none;align=center;verticalAlign=middle;whiteSpace=wrap;rounded=0;" vertex="1" parent="1">
          <mxGeometry x="581" y="40" width="20" height="20" as="geometry" />
        </mxCell>
        <mxCell id="SnQP7IMaJ4934iUjSsYH-52" value="A" style="text;html=1;strokeColor=none;fillColor=none;align=center;verticalAlign=middle;whiteSpace=wrap;rounded=0;" vertex="1" parent="1">
          <mxGeometry x="501" y="40" width="20" height="20" as="geometry" />
        </mxCell>
        <mxCell id="SnQP7IMaJ4934iUjSsYH-53" value="Case4" style="text;html=1;strokeColor=none;fillColor=none;align=center;verticalAlign=middle;whiteSpace=wrap;rounded=0;" vertex="1" parent="1">
          <mxGeometry x="481" y="20" width="40" height="20" as="geometry" />
        </mxCell>
        <mxCell id="SnQP7IMaJ4934iUjSsYH-54" value="1:1" style="text;html=1;strokeColor=none;fillColor=none;align=center;verticalAlign=middle;whiteSpace=wrap;rounded=0;" vertex="1" parent="1">
          <mxGeometry x="531" y="160" width="40" height="20" as="geometry" />
        </mxCell>
        <mxCell id="SnQP7IMaJ4934iUjSsYH-55" style="edgeStyle=orthogonalEdgeStyle;rounded=0;orthogonalLoop=1;jettySize=auto;html=1;exitX=1;exitY=0.5;exitDx=0;exitDy=0;exitPerimeter=0;entryX=0;entryY=0.5;entryDx=0;entryDy=0;endArrow=none;endFill=0;" edge="1" parent="1" source="SnQP7IMaJ4934iUjSsYH-56" target="SnQP7IMaJ4934iUjSsYH-60">
          <mxGeometry relative="1" as="geometry" />
        </mxCell>
        <mxCell id="SnQP7IMaJ4934iUjSsYH-56" value="" style="strokeWidth=2;html=1;shape=mxgraph.flowchart.start_2;whiteSpace=wrap;" vertex="1" parent="1">
          <mxGeometry x="502" y="251" width="20" height="20" as="geometry" />
        </mxCell>
        <mxCell id="SnQP7IMaJ4934iUjSsYH-57" style="edgeStyle=orthogonalEdgeStyle;rounded=0;orthogonalLoop=1;jettySize=auto;html=1;exitX=1;exitY=0.5;exitDx=0;exitDy=0;exitPerimeter=0;entryX=0;entryY=0.5;entryDx=0;entryDy=0;endArrow=none;endFill=0;" edge="1" parent="1" source="SnQP7IMaJ4934iUjSsYH-58" target="SnQP7IMaJ4934iUjSsYH-61">
          <mxGeometry relative="1" as="geometry" />
        </mxCell>
        <mxCell id="SnQP7IMaJ4934iUjSsYH-58" value="" style="strokeWidth=2;html=1;shape=mxgraph.flowchart.start_2;whiteSpace=wrap;" vertex="1" parent="1">
          <mxGeometry x="502" y="281" width="20" height="20" as="geometry" />
        </mxCell>
        <mxCell id="SnQP7IMaJ4934iUjSsYH-60" value="" style="whiteSpace=wrap;html=1;aspect=fixed;" vertex="1" parent="1">
          <mxGeometry x="582" y="251" width="20" height="20" as="geometry" />
        </mxCell>
        <mxCell id="SnQP7IMaJ4934iUjSsYH-61" value="" style="whiteSpace=wrap;html=1;aspect=fixed;" vertex="1" parent="1">
          <mxGeometry x="582" y="281" width="20" height="20" as="geometry" />
        </mxCell>
        <mxCell id="SnQP7IMaJ4934iUjSsYH-62" value="" style="whiteSpace=wrap;html=1;aspect=fixed;" vertex="1" parent="1">
          <mxGeometry x="582" y="311" width="20" height="20" as="geometry" />
        </mxCell>
        <mxCell id="SnQP7IMaJ4934iUjSsYH-63" value="a1" style="text;html=1;strokeColor=none;fillColor=none;align=center;verticalAlign=middle;whiteSpace=wrap;rounded=0;" vertex="1" parent="1">
          <mxGeometry x="482" y="251" width="20" height="20" as="geometry" />
        </mxCell>
        <mxCell id="SnQP7IMaJ4934iUjSsYH-64" value="a2" style="text;html=1;strokeColor=none;fillColor=none;align=center;verticalAlign=middle;whiteSpace=wrap;rounded=0;" vertex="1" parent="1">
          <mxGeometry x="482" y="281" width="20" height="20" as="geometry" />
        </mxCell>
        <mxCell id="SnQP7IMaJ4934iUjSsYH-66" value="b1" style="text;html=1;strokeColor=none;fillColor=none;align=center;verticalAlign=middle;whiteSpace=wrap;rounded=0;" vertex="1" parent="1">
          <mxGeometry x="602" y="251" width="20" height="20" as="geometry" />
        </mxCell>
        <mxCell id="SnQP7IMaJ4934iUjSsYH-67" value="b2" style="text;html=1;strokeColor=none;fillColor=none;align=center;verticalAlign=middle;whiteSpace=wrap;rounded=0;" vertex="1" parent="1">
          <mxGeometry x="602" y="281" width="20" height="20" as="geometry" />
        </mxCell>
        <mxCell id="SnQP7IMaJ4934iUjSsYH-68" value="b3" style="text;html=1;strokeColor=none;fillColor=none;align=center;verticalAlign=middle;whiteSpace=wrap;rounded=0;" vertex="1" parent="1">
          <mxGeometry x="602" y="311" width="20" height="20" as="geometry" />
        </mxCell>
        <mxCell id="SnQP7IMaJ4934iUjSsYH-69" value="B" style="text;html=1;strokeColor=none;fillColor=none;align=center;verticalAlign=middle;whiteSpace=wrap;rounded=0;" vertex="1" parent="1">
          <mxGeometry x="582" y="221" width="20" height="20" as="geometry" />
        </mxCell>
        <mxCell id="SnQP7IMaJ4934iUjSsYH-70" value="A" style="text;html=1;strokeColor=none;fillColor=none;align=center;verticalAlign=middle;whiteSpace=wrap;rounded=0;" vertex="1" parent="1">
          <mxGeometry x="502" y="221" width="20" height="20" as="geometry" />
        </mxCell>
        <mxCell id="SnQP7IMaJ4934iUjSsYH-71" value="Case5" style="text;html=1;strokeColor=none;fillColor=none;align=center;verticalAlign=middle;whiteSpace=wrap;rounded=0;" vertex="1" parent="1">
          <mxGeometry x="482" y="201" width="40" height="20" as="geometry" />
        </mxCell>
        <mxCell id="SnQP7IMaJ4934iUjSsYH-72" value="1:n" style="text;html=1;strokeColor=none;fillColor=none;align=center;verticalAlign=middle;whiteSpace=wrap;rounded=0;" vertex="1" parent="1">
          <mxGeometry x="532" y="341" width="40" height="20" as="geometry" />
        </mxCell>
        <mxCell id="SnQP7IMaJ4934iUjSsYH-73" style="rounded=0;orthogonalLoop=1;jettySize=auto;html=1;exitX=1;exitY=0.5;exitDx=0;exitDy=0;exitPerimeter=0;entryX=0;entryY=0.5;entryDx=0;entryDy=0;endArrow=none;endFill=0;" edge="1" parent="1" source="SnQP7IMaJ4934iUjSsYH-74" target="SnQP7IMaJ4934iUjSsYH-78">
          <mxGeometry relative="1" as="geometry" />
        </mxCell>
        <mxCell id="SnQP7IMaJ4934iUjSsYH-100" style="rounded=0;orthogonalLoop=1;jettySize=auto;html=1;exitX=1;exitY=0.5;exitDx=0;exitDy=0;exitPerimeter=0;entryX=0;entryY=0.5;entryDx=0;entryDy=0;endArrow=none;endFill=0;" edge="1" parent="1" source="SnQP7IMaJ4934iUjSsYH-74" target="SnQP7IMaJ4934iUjSsYH-79">
          <mxGeometry relative="1" as="geometry" />
        </mxCell>
        <mxCell id="SnQP7IMaJ4934iUjSsYH-74" value="" style="strokeWidth=2;html=1;shape=mxgraph.flowchart.start_2;whiteSpace=wrap;" vertex="1" parent="1">
          <mxGeometry x="502" y="432" width="20" height="20" as="geometry" />
        </mxCell>
        <mxCell id="SnQP7IMaJ4934iUjSsYH-75" style="edgeStyle=orthogonalEdgeStyle;rounded=0;orthogonalLoop=1;jettySize=auto;html=1;exitX=1;exitY=0.5;exitDx=0;exitDy=0;exitPerimeter=0;entryX=0;entryY=0.5;entryDx=0;entryDy=0;endArrow=none;endFill=0;" edge="1" parent="1" source="SnQP7IMaJ4934iUjSsYH-76" target="SnQP7IMaJ4934iUjSsYH-79">
          <mxGeometry relative="1" as="geometry" />
        </mxCell>
        <mxCell id="SnQP7IMaJ4934iUjSsYH-76" value="" style="strokeWidth=2;html=1;shape=mxgraph.flowchart.start_2;whiteSpace=wrap;" vertex="1" parent="1">
          <mxGeometry x="502" y="462" width="20" height="20" as="geometry" />
        </mxCell>
        <mxCell id="SnQP7IMaJ4934iUjSsYH-78" value="" style="whiteSpace=wrap;html=1;aspect=fixed;" vertex="1" parent="1">
          <mxGeometry x="582" y="432" width="20" height="20" as="geometry" />
        </mxCell>
        <mxCell id="SnQP7IMaJ4934iUjSsYH-79" value="" style="whiteSpace=wrap;html=1;aspect=fixed;" vertex="1" parent="1">
          <mxGeometry x="582" y="462" width="20" height="20" as="geometry" />
        </mxCell>
        <mxCell id="SnQP7IMaJ4934iUjSsYH-80" value="" style="whiteSpace=wrap;html=1;aspect=fixed;" vertex="1" parent="1">
          <mxGeometry x="582" y="492" width="20" height="20" as="geometry" />
        </mxCell>
        <mxCell id="SnQP7IMaJ4934iUjSsYH-81" value="a1" style="text;html=1;strokeColor=none;fillColor=none;align=center;verticalAlign=middle;whiteSpace=wrap;rounded=0;" vertex="1" parent="1">
          <mxGeometry x="482" y="432" width="20" height="20" as="geometry" />
        </mxCell>
        <mxCell id="SnQP7IMaJ4934iUjSsYH-82" value="a2" style="text;html=1;strokeColor=none;fillColor=none;align=center;verticalAlign=middle;whiteSpace=wrap;rounded=0;" vertex="1" parent="1">
          <mxGeometry x="482" y="462" width="20" height="20" as="geometry" />
        </mxCell>
        <mxCell id="SnQP7IMaJ4934iUjSsYH-84" value="b1" style="text;html=1;strokeColor=none;fillColor=none;align=center;verticalAlign=middle;whiteSpace=wrap;rounded=0;" vertex="1" parent="1">
          <mxGeometry x="602" y="432" width="20" height="20" as="geometry" />
        </mxCell>
        <mxCell id="SnQP7IMaJ4934iUjSsYH-85" value="b2" style="text;html=1;strokeColor=none;fillColor=none;align=center;verticalAlign=middle;whiteSpace=wrap;rounded=0;" vertex="1" parent="1">
          <mxGeometry x="602" y="462" width="20" height="20" as="geometry" />
        </mxCell>
        <mxCell id="SnQP7IMaJ4934iUjSsYH-86" value="b3" style="text;html=1;strokeColor=none;fillColor=none;align=center;verticalAlign=middle;whiteSpace=wrap;rounded=0;" vertex="1" parent="1">
          <mxGeometry x="602" y="492" width="20" height="20" as="geometry" />
        </mxCell>
        <mxCell id="SnQP7IMaJ4934iUjSsYH-87" value="B" style="text;html=1;strokeColor=none;fillColor=none;align=center;verticalAlign=middle;whiteSpace=wrap;rounded=0;" vertex="1" parent="1">
          <mxGeometry x="582" y="402" width="20" height="20" as="geometry" />
        </mxCell>
        <mxCell id="SnQP7IMaJ4934iUjSsYH-88" value="A" style="text;html=1;strokeColor=none;fillColor=none;align=center;verticalAlign=middle;whiteSpace=wrap;rounded=0;" vertex="1" parent="1">
          <mxGeometry x="502" y="402" width="20" height="20" as="geometry" />
        </mxCell>
        <mxCell id="SnQP7IMaJ4934iUjSsYH-89" value="Case6" style="text;html=1;strokeColor=none;fillColor=none;align=center;verticalAlign=middle;whiteSpace=wrap;rounded=0;" vertex="1" parent="1">
          <mxGeometry x="482" y="382" width="40" height="20" as="geometry" />
        </mxCell>
        <mxCell id="SnQP7IMaJ4934iUjSsYH-90" value="m:n" style="text;html=1;strokeColor=none;fillColor=none;align=center;verticalAlign=middle;whiteSpace=wrap;rounded=0;" vertex="1" parent="1">
          <mxGeometry x="532" y="522" width="40" height="20" as="geometry" />
        </mxCell>
        <mxCell id="SnQP7IMaJ4934iUjSsYH-93" value="" style="endArrow=none;html=1;rounded=0;entryX=0;entryY=0.5;entryDx=0;entryDy=0;" edge="1" parent="1" target="SnQP7IMaJ4934iUjSsYH-6">
          <mxGeometry width="50" height="50" relative="1" as="geometry">
            <mxPoint x="80" y="290" as="sourcePoint" />
            <mxPoint x="130" y="260" as="targetPoint" />
          </mxGeometry>
        </mxCell>
        <mxCell id="SnQP7IMaJ4934iUjSsYH-94" value="" style="endArrow=none;html=1;rounded=0;entryX=0;entryY=0.5;entryDx=0;entryDy=0;" edge="1" parent="1" target="SnQP7IMaJ4934iUjSsYH-24">
          <mxGeometry width="50" height="50" relative="1" as="geometry">
            <mxPoint x="80" y="469" as="sourcePoint" />
            <mxPoint x="141.5" y="440" as="targetPoint" />
          </mxGeometry>
        </mxCell>
        <mxCell id="SnQP7IMaJ4934iUjSsYH-96" value="" style="endArrow=none;html=1;rounded=0;exitX=0;exitY=0.5;exitDx=0;exitDy=0;" edge="1" parent="1" source="SnQP7IMaJ4934iUjSsYH-25">
          <mxGeometry width="50" height="50" relative="1" as="geometry">
            <mxPoint x="150" y="462" as="sourcePoint" />
            <mxPoint x="80" y="442" as="targetPoint" />
          </mxGeometry>
        </mxCell>
        <mxCell id="SnQP7IMaJ4934iUjSsYH-102" style="rounded=0;orthogonalLoop=1;jettySize=auto;html=1;exitX=1;exitY=0.5;exitDx=0;exitDy=0;exitPerimeter=0;entryX=0;entryY=0.5;entryDx=0;entryDy=0;endArrow=none;endFill=0;" edge="1" parent="1">
          <mxGeometry relative="1" as="geometry">
            <mxPoint x="522" y="470" as="sourcePoint" />
            <mxPoint x="582" y="440" as="targetPoint" />
          </mxGeometry>
        </mxCell>
        <mxCell id="SnQP7IMaJ4934iUjSsYH-106" style="rounded=0;orthogonalLoop=1;jettySize=auto;html=1;exitX=1;exitY=0.5;exitDx=0;exitDy=0;exitPerimeter=0;entryX=0;entryY=0.5;entryDx=0;entryDy=0;endArrow=none;endFill=0;" edge="1" parent="1">
          <mxGeometry relative="1" as="geometry">
            <mxPoint x="522" y="290" as="sourcePoint" />
            <mxPoint x="582" y="260" as="targetPoint" />
          </mxGeometry>
        </mxCell>
      </root>
    </mxGraphModel>
  </diagram>
</mxfile>
